<svg class="animated" id="freepik_stories-race-car" xmlns="http://www.w3.org/2000/svg" viewBox="0 0 750 500" version="1.1" xmlns:xlink="http://www.w3.org/1999/xlink" xmlns:svgjs="http://svgjs.com/svgjs"><style>svg#freepik_stories-race-car:not(.animated) .animable {opacity: 0;}svg#freepik_stories-race-car.animated #freepik--background-complete--inject-96 {animation: 1s 1 forwards linear slideLeft;animation-delay: 0s;}svg#freepik_stories-race-car.animated #freepik--Floor--inject-96 {animation: 1s 1 forwards cubic-bezier(.36,-0.01,.5,1.38) slideLeft;animation-delay: 0s;}svg#freepik_stories-race-car.animated #freepik--Car--inject-96 {animation: 1s 1 forwards cubic-bezier(.36,-0.01,.5,1.38) slideLeft;animation-delay: 0s;}            @keyframes slideLeft {                0% {                    opacity: 0;                    transform: translateX(-30px);                }                100% {                    opacity: 1;                    transform: translateX(0);                }            }        </style><g id="freepik--background-complete--inject-96" class="animable" style="transform-origin: 374.778px 222.593px;"><path d="M707.89,352.53c-2.94-1.59-6.57,0-9.34,1.84a44.9,44.9,0,0,0-14.89,16.81c1.52-3.54-1.41-8.12-5.26-9.2-4.14-1.17-8.53.54-12.24,2.71a47.86,47.86,0,0,0-18.95,20.76,8.1,8.1,0,0,0-6.66-5,13.68,13.68,0,0,0-8.38,2c-8.75,5-13.17,15.67-22.12,20.26-4,2.07-8.59,2.7-13.06,3.3l-40.55,5.45,135.64-.5A78.68,78.68,0,0,0,711.42,362C711.54,358.46,711,354.22,707.89,352.53Z" style="fill: rgb(235, 235, 235); transform-origin: 633.938px 381.669px;" id="elise36i6u22" class="animable"></path><path d="M157.78,209.93s0-.25,0-.73,0-1.19,0-2.12c0-1.86,0-4.59,0-8.11,0-7.05,0-17.24.07-29.88,0-25.26.05-60.28.09-99.37l-.22.22h9.16l-.22-.22c.07,64.31.13,119,.15,139l.06-.07-6.84.92-1.73.23-.58.09.56-.06,1.71-.2,6.9-.83H167v-.07c0-20.08.08-74.73.15-139v-.23h-9.61v.22c0,39.16.07,74.24.09,99.54,0,12.62,0,22.79.07,29.83,0,3.49,0,6.21,0,8.06,0,.91,0,1.6,0,2.08S157.78,209.93,157.78,209.93Z" style="fill: rgb(235, 235, 235); transform-origin: 162.345px 139.715px;" id="el9rhqt86i7c" class="animable"></path><path d="M107.19,209.52s0-.25,0-.73,0-1.19,0-2.1c0-1.86,0-4.58,0-8.09,0-7,0-17.19.07-29.79,0-25.18.05-60.1.09-99.09l-.22.22h8.87l-.22-.22c.07,64.89.13,120,.15,139.8l.07-.07-6.65,0-1.66,0h-.56l.53,0h1.65l6.69,0h.08v-.08c0-19.76.08-74.91.15-139.8v-.23H107v.22c0,39.06.07,74,.1,99.26,0,12.58,0,22.72.06,29.73,0,3.49,0,6.19,0,8,0,.9,0,1.6,0,2.07S107.19,209.52,107.19,209.52Z" style="fill: rgb(235, 235, 235); transform-origin: 111.615px 139.43px;" id="elgzopv36txhf" class="animable"></path><path d="M83.74,125.47c0,.13,24.11.23,53.83.23s53.83-.1,53.83-.23-24.1-.22-53.83-.22S83.74,125.35,83.74,125.47Z" style="fill: rgb(235, 235, 235); transform-origin: 137.57px 125.475px;" id="elkj61st3zjek" class="animable"></path><path d="M83.74,108.66c0,.12,24.11.22,53.83.22s53.83-.1,53.83-.22-24.1-.22-53.83-.22S83.74,108.54,83.74,108.66Z" style="fill: rgb(235, 235, 235); transform-origin: 137.57px 108.66px;" id="elh8jdrrm6h7n" class="animable"></path><path d="M83.74,91.85c0,.12,24.11.22,53.83.22s53.83-.1,53.83-.22-24.1-.23-53.83-.23S83.74,91.72,83.74,91.85Z" style="fill: rgb(235, 235, 235); transform-origin: 137.57px 91.845px;" id="elqiq0es99b3" class="animable"></path><path d="M83.74,75c0,.13,24.11.23,53.83.23s53.83-.1,53.83-.23-24.1-.22-53.83-.22S83.74,74.91,83.74,75Z" style="fill: rgb(235, 235, 235); transform-origin: 137.57px 75.005px;" id="eld1l1ixlkvpe" class="animable"></path><path d="M183.25,126.37a7,7,0,1,0,7-7A7,7,0,0,0,183.25,126.37Z" style="fill: rgb(250, 250, 250); transform-origin: 190.25px 126.37px;" id="elvppv30fkqr" class="animable"></path><path d="M182.82,126.37a7.44,7.44,0,1,1,7.43,7.44A7.43,7.43,0,0,1,182.82,126.37Zm.85,0a6.58,6.58,0,1,0,6.58-6.58A6.59,6.59,0,0,0,183.67,126.37Z" style="fill: rgb(235, 235, 235); transform-origin: 190.26px 126.37px;" id="el55e3b8iv3aq" class="animable"></path><path d="M165.44,126.37a7,7,0,1,0,7-7A7,7,0,0,0,165.44,126.37Z" style="fill: rgb(250, 250, 250); transform-origin: 172.44px 126.37px;" id="elluhmwp3u9gr" class="animable"></path><path d="M165,126.37a7.44,7.44,0,1,1,7.44,7.44A7.44,7.44,0,0,1,165,126.37Zm.86,0a6.58,6.58,0,1,0,6.58-6.58A6.59,6.59,0,0,0,165.87,126.37Z" style="fill: rgb(235, 235, 235); transform-origin: 172.44px 126.37px;" id="elhg43vv9bnwq" class="animable"></path><path d="M147.63,126.37a7,7,0,1,0,7-7A7,7,0,0,0,147.63,126.37Z" style="fill: rgb(250, 250, 250); transform-origin: 154.63px 126.37px;" id="elanf5e4c68bp" class="animable"></path><path d="M147.2,126.37a7.44,7.44,0,1,1,7.44,7.44A7.44,7.44,0,0,1,147.2,126.37Zm.86,0a6.58,6.58,0,1,0,6.58-6.58A6.59,6.59,0,0,0,148.06,126.37Z" style="fill: rgb(235, 235, 235); transform-origin: 154.64px 126.37px;" id="elcxgknt33hv8" class="animable"></path><path d="M129.83,126.37a7,7,0,1,0,7-7A7,7,0,0,0,129.83,126.37Z" style="fill: rgb(250, 250, 250); transform-origin: 136.83px 126.37px;" id="el9o7l97ekqmf" class="animable"></path><path d="M129.4,126.37a7.44,7.44,0,1,1,7.44,7.44A7.44,7.44,0,0,1,129.4,126.37Zm.86,0a6.58,6.58,0,1,0,6.58-6.58A6.59,6.59,0,0,0,130.26,126.37Z" style="fill: rgb(235, 235, 235); transform-origin: 136.84px 126.37px;" id="elnhqodyc9afh" class="animable"></path><path d="M112,126.37a7,7,0,1,0,7-7A7,7,0,0,0,112,126.37Z" style="fill: rgb(250, 250, 250); transform-origin: 119px 126.37px;" id="elu32psynq3g9" class="animable"></path><path d="M111.59,126.37a7.44,7.44,0,1,1,7.44,7.44A7.44,7.44,0,0,1,111.59,126.37Zm.86,0a6.58,6.58,0,1,0,6.58-6.58A6.59,6.59,0,0,0,112.45,126.37Z" style="fill: rgb(235, 235, 235); transform-origin: 119.03px 126.37px;" id="elbmu6uq5lan" class="animable"></path><path d="M94.21,126.37a7,7,0,1,0,7-7A7,7,0,0,0,94.21,126.37Z" style="fill: rgb(250, 250, 250); transform-origin: 101.21px 126.37px;" id="ele7lesezdul" class="animable"></path><path d="M93.79,126.37a7.44,7.44,0,1,1,7.43,7.44A7.43,7.43,0,0,1,93.79,126.37Zm.85,0a6.58,6.58,0,1,0,6.58-6.58A6.59,6.59,0,0,0,94.64,126.37Z" style="fill: rgb(235, 235, 235); transform-origin: 101.23px 126.37px;" id="elmcrgodcqdo7" class="animable"></path><path d="M76.41,126.37a7,7,0,1,0,7-7A7,7,0,0,0,76.41,126.37Z" style="fill: rgb(250, 250, 250); transform-origin: 83.41px 126.37px;" id="elws29cgf1y8l" class="animable"></path><path d="M76,126.37a7.44,7.44,0,1,1,7.44,7.44A7.44,7.44,0,0,1,76,126.37Zm.86,0a6.58,6.58,0,1,0,6.58-6.58A6.59,6.59,0,0,0,76.84,126.37Z" style="fill: rgb(235, 235, 235); transform-origin: 83.44px 126.37px;" id="elksrq2remgyh" class="animable"></path><circle cx="172.45" cy="109.11" r="7.01" style="fill: rgb(250, 250, 250); transform-origin: 172.45px 109.11px;" id="elcmeng3gmfat" class="animable"></circle><path d="M165,109.11a7.44,7.44,0,1,1,7.44,7.44A7.44,7.44,0,0,1,165,109.11Zm.86,0a6.58,6.58,0,1,0,6.58-6.58A6.59,6.59,0,0,0,165.87,109.11Z" style="fill: rgb(235, 235, 235); transform-origin: 172.44px 109.11px;" id="elkjdatqs2fos" class="animable"></path><path d="M147.63,109.11a7,7,0,1,0,7-7A7,7,0,0,0,147.63,109.11Z" style="fill: rgb(250, 250, 250); transform-origin: 154.63px 109.11px;" id="elb6cv8oaltcm" class="animable"></path><path d="M147.2,109.11a7.44,7.44,0,1,1,7.44,7.44A7.44,7.44,0,0,1,147.2,109.11Zm.86,0a6.58,6.58,0,1,0,6.58-6.58A6.59,6.59,0,0,0,148.06,109.11Z" style="fill: rgb(235, 235, 235); transform-origin: 154.64px 109.11px;" id="ellzajpfgoct9" class="animable"></path><circle cx="136.84" cy="109.11" r="7.01" style="fill: rgb(250, 250, 250); transform-origin: 136.84px 109.11px;" id="elpkjb961h44" class="animable"></circle><path d="M129.4,109.11a7.44,7.44,0,1,1,7.44,7.44A7.44,7.44,0,0,1,129.4,109.11Zm.86,0a6.58,6.58,0,1,0,6.58-6.58A6.59,6.59,0,0,0,130.26,109.11Z" style="fill: rgb(235, 235, 235); transform-origin: 136.84px 109.11px;" id="elnf32vgj113q" class="animable"></path><circle cx="119.03" cy="109.11" r="7.01" style="fill: rgb(250, 250, 250); transform-origin: 119.03px 109.11px;" id="el1v7g9fejh3g" class="animable"></circle><path d="M111.59,109.11a7.44,7.44,0,1,1,7.44,7.44A7.44,7.44,0,0,1,111.59,109.11Zm.86,0a6.58,6.58,0,1,0,6.58-6.58A6.59,6.59,0,0,0,112.45,109.11Z" style="fill: rgb(235, 235, 235); transform-origin: 119.03px 109.11px;" id="elpa5b094r4t9" class="animable"></path><circle cx="101.22" cy="109.11" r="7.01" style="fill: rgb(250, 250, 250); transform-origin: 101.22px 109.11px;" id="elc5osrih3r7a" class="animable"></circle><path d="M93.79,109.11a7.44,7.44,0,1,1,7.43,7.44A7.43,7.43,0,0,1,93.79,109.11Zm.85,0a6.58,6.58,0,1,0,6.58-6.58A6.59,6.59,0,0,0,94.64,109.11Z" style="fill: rgb(235, 235, 235); transform-origin: 101.23px 109.11px;" id="el32e2qzdx85p" class="animable"></path><circle cx="83.42" cy="109.11" r="7.01" style="fill: rgb(250, 250, 250); transform-origin: 83.42px 109.11px;" id="elf1nakmrbso9" class="animable"></circle><path d="M76,109.11a7.44,7.44,0,1,1,7.44,7.44A7.44,7.44,0,0,1,76,109.11Zm.86,0a6.58,6.58,0,1,0,6.58-6.58A6.59,6.59,0,0,0,76.84,109.11Z" style="fill: rgb(235, 235, 235); transform-origin: 83.44px 109.11px;" id="elqytd7wqy7n" class="animable"></path><path d="M183.25,108.92a7,7,0,1,0,7-7A7,7,0,0,0,183.25,108.92Z" style="fill: rgb(250, 250, 250); transform-origin: 190.25px 108.92px;" id="elp3txfqb4nch" class="animable"></path><path d="M182.82,108.92a7.44,7.44,0,1,1,7.43,7.43A7.44,7.44,0,0,1,182.82,108.92Zm.85,0a6.58,6.58,0,1,0,6.58-6.58A6.59,6.59,0,0,0,183.67,108.92Z" style="fill: rgb(235, 235, 235); transform-origin: 190.26px 108.91px;" id="elrs85ezh92k" class="animable"></path><path d="M165.44,92.07a7,7,0,1,0,7-7A7,7,0,0,0,165.44,92.07Z" style="fill: rgb(250, 250, 250); transform-origin: 172.44px 92.07px;" id="el6lqqzhvjg4" class="animable"></path><path d="M165,92.07a7.44,7.44,0,1,1,7.44,7.44A7.45,7.45,0,0,1,165,92.07Zm.86,0a6.58,6.58,0,1,0,6.58-6.58A6.59,6.59,0,0,0,165.87,92.07Z" style="fill: rgb(235, 235, 235); transform-origin: 172.44px 92.07px;" id="ele4yhgy0rrrb" class="animable"></path><path d="M147.63,92.07a7,7,0,1,0,7-7A7,7,0,0,0,147.63,92.07Z" style="fill: rgb(250, 250, 250); transform-origin: 154.63px 92.07px;" id="eld9v5bp0y2jb" class="animable"></path><path d="M147.2,92.07a7.44,7.44,0,1,1,7.44,7.44A7.45,7.45,0,0,1,147.2,92.07Zm.86,0a6.58,6.58,0,1,0,6.58-6.58A6.59,6.59,0,0,0,148.06,92.07Z" style="fill: rgb(235, 235, 235); transform-origin: 154.64px 92.07px;" id="el1mpu2fzeov4" class="animable"></path><path d="M129.83,92.07a7,7,0,1,0,7-7A7,7,0,0,0,129.83,92.07Z" style="fill: rgb(250, 250, 250); transform-origin: 136.83px 92.07px;" id="el8xijg89gc8r" class="animable"></path><path d="M129.4,92.07a7.44,7.44,0,1,1,7.44,7.44A7.45,7.45,0,0,1,129.4,92.07Zm.86,0a6.58,6.58,0,1,0,6.58-6.58A6.59,6.59,0,0,0,130.26,92.07Z" style="fill: rgb(235, 235, 235); transform-origin: 136.84px 92.07px;" id="elms23f3meref" class="animable"></path><path d="M112,92.07a7,7,0,1,0,7-7A7,7,0,0,0,112,92.07Z" style="fill: rgb(250, 250, 250); transform-origin: 119px 92.07px;" id="elwk0r9s68ym" class="animable"></path><path d="M111.59,92.07A7.44,7.44,0,1,1,119,99.51,7.45,7.45,0,0,1,111.59,92.07Zm.86,0A6.58,6.58,0,1,0,119,85.49,6.59,6.59,0,0,0,112.45,92.07Z" style="fill: rgb(235, 235, 235); transform-origin: 119.03px 92.0701px;" id="elhxeincw66pt" class="animable"></path><path d="M94.21,92.07a7,7,0,1,0,7-7A7,7,0,0,0,94.21,92.07Z" style="fill: rgb(250, 250, 250); transform-origin: 101.21px 92.07px;" id="eltw4hrdfn8kg" class="animable"></path><path d="M93.79,92.07a7.44,7.44,0,1,1,7.43,7.44A7.44,7.44,0,0,1,93.79,92.07Zm.85,0a6.58,6.58,0,1,0,6.58-6.58A6.59,6.59,0,0,0,94.64,92.07Z" style="fill: rgb(235, 235, 235); transform-origin: 101.23px 92.07px;" id="elrjn898jjqgc" class="animable"></path><path d="M76.41,92.07a7,7,0,1,0,7-7A7,7,0,0,0,76.41,92.07Z" style="fill: rgb(250, 250, 250); transform-origin: 83.41px 92.07px;" id="el264376s9www" class="animable"></path><path d="M76,92.07a7.44,7.44,0,1,1,7.44,7.44A7.45,7.45,0,0,1,76,92.07Zm.86,0a6.58,6.58,0,1,0,6.58-6.58A6.59,6.59,0,0,0,76.84,92.07Z" style="fill: rgb(235, 235, 235); transform-origin: 83.44px 92.07px;" id="elf39i19t8ugo" class="animable"></path><path d="M183.25,91.87a7,7,0,1,0,7-7A7,7,0,0,0,183.25,91.87Z" style="fill: rgb(250, 250, 250); transform-origin: 190.25px 91.87px;" id="elkxbe4rfp7jm" class="animable"></path><path d="M182.82,91.87a7.44,7.44,0,1,1,7.43,7.44A7.43,7.43,0,0,1,182.82,91.87Zm.85,0a6.58,6.58,0,1,0,6.58-6.58A6.59,6.59,0,0,0,183.67,91.87Z" style="fill: rgb(235, 235, 235); transform-origin: 190.26px 91.87px;" id="elf38ol56f9o5" class="animable"></path><circle cx="172.45" cy="75.02" r="7.01" style="fill: rgb(250, 250, 250); transform-origin: 172.45px 75.02px;" id="elh57lasdkv76" class="animable"></circle><path d="M165,75a7.44,7.44,0,1,1,7.44,7.44A7.44,7.44,0,0,1,165,75Zm.86,0a6.58,6.58,0,1,0,6.58-6.58A6.59,6.59,0,0,0,165.87,75Z" style="fill: rgb(235, 235, 235); transform-origin: 172.44px 75px;" id="elcb2o3w2qi" class="animable"></path><path d="M147.63,75a7,7,0,1,0,7-7A7,7,0,0,0,147.63,75Z" style="fill: rgb(250, 250, 250); transform-origin: 154.63px 75px;" id="el90appys232i" class="animable"></path><path d="M147.2,75a7.44,7.44,0,1,1,7.44,7.44A7.44,7.44,0,0,1,147.2,75Zm.86,0a6.58,6.58,0,1,0,6.58-6.58A6.59,6.59,0,0,0,148.06,75Z" style="fill: rgb(235, 235, 235); transform-origin: 154.64px 75px;" id="elmxwylsmv139" class="animable"></path><circle cx="136.84" cy="75.02" r="7.01" style="fill: rgb(250, 250, 250); transform-origin: 136.84px 75.02px;" id="elnqsgj433dg" class="animable"></circle><path d="M129.4,75a7.44,7.44,0,1,1,7.44,7.44A7.44,7.44,0,0,1,129.4,75Zm.86,0a6.58,6.58,0,1,0,6.58-6.58A6.59,6.59,0,0,0,130.26,75Z" style="fill: rgb(235, 235, 235); transform-origin: 136.84px 75px;" id="el4aueyhev6jf" class="animable"></path><circle cx="119.03" cy="75.02" r="7.01" style="fill: rgb(250, 250, 250); transform-origin: 119.03px 75.02px;" id="elfn9fazqfagr" class="animable"></circle><path d="M111.59,75A7.44,7.44,0,1,1,119,82.46,7.44,7.44,0,0,1,111.59,75Zm.86,0A6.58,6.58,0,1,0,119,68.44,6.59,6.59,0,0,0,112.45,75Z" style="fill: rgb(235, 235, 235); transform-origin: 119.03px 75.0201px;" id="elikvbwcqzut" class="animable"></path><circle cx="101.22" cy="75.02" r="7.01" style="fill: rgb(250, 250, 250); transform-origin: 101.22px 75.02px;" id="el9nw0nnrnr48" class="animable"></circle><path d="M93.79,75a7.44,7.44,0,1,1,7.43,7.44A7.43,7.43,0,0,1,93.79,75Zm.85,0a6.58,6.58,0,1,0,6.58-6.58A6.59,6.59,0,0,0,94.64,75Z" style="fill: rgb(235, 235, 235); transform-origin: 101.23px 75px;" id="elyo96g9x72e" class="animable"></path><circle cx="83.42" cy="75.02" r="7.01" style="fill: rgb(250, 250, 250); transform-origin: 83.42px 75.02px;" id="elt6cyn06wxjn" class="animable"></circle><path d="M76,75a7.44,7.44,0,1,1,7.44,7.44A7.44,7.44,0,0,1,76,75Zm.86,0a6.58,6.58,0,1,0,6.58-6.58A6.59,6.59,0,0,0,76.84,75Z" style="fill: rgb(235, 235, 235); transform-origin: 83.44px 75px;" id="el71rd4ycegxu" class="animable"></path><path d="M183.25,74.83a7,7,0,1,0,7-7A7,7,0,0,0,183.25,74.83Z" style="fill: rgb(250, 250, 250); transform-origin: 190.25px 74.83px;" id="elxvwgz4z01vn" class="animable"></path><path d="M182.82,74.83a7.44,7.44,0,1,1,7.43,7.43A7.44,7.44,0,0,1,182.82,74.83Zm.85,0a6.58,6.58,0,1,0,6.58-6.58A6.59,6.59,0,0,0,183.67,74.83Z" style="fill: rgb(235, 235, 235); transform-origin: 190.26px 74.82px;" id="el4othqudyu4r" class="animable"></path><g id="el4acvzpg8yyy"><rect x="38.12" y="194.31" width="72.94" height="106.86" style="fill: rgb(245, 245, 245); transform-origin: 74.59px 247.74px; transform: rotate(180deg);" class="animable"></rect></g><g id="elkd8m4tvpnvj"><rect x="44.39" y="197.43" width="60.98" height="14.25" style="fill: rgb(235, 235, 235); transform-origin: 74.88px 204.555px; transform: rotate(180deg);" class="animable"></rect></g><polygon points="48.95 194.31 55.37 211.68 44.39 211.68 44.39 194.31 48.95 194.31" style="fill: rgb(224, 224, 224); transform-origin: 49.88px 202.995px;" id="elkofms7v3h8" class="animable"></polygon><g id="elu157i9hv5i"><rect x="44.39" y="214.8" width="60.98" height="14.25" style="fill: rgb(235, 235, 235); transform-origin: 74.88px 221.925px; transform: rotate(180deg);" class="animable"></rect></g><polygon points="48.95 211.68 55.37 229.05 44.39 229.05 44.39 211.68 48.95 211.68" style="fill: rgb(224, 224, 224); transform-origin: 49.88px 220.365px;" id="elfiyagvhgjoo" class="animable"></polygon><g id="el7sat8dty2z"><rect x="44.39" y="232.51" width="60.98" height="14.25" style="fill: rgb(235, 235, 235); transform-origin: 74.88px 239.635px; transform: rotate(180deg);" class="animable"></rect></g><polygon points="48.95 229.39 55.37 246.75 44.39 246.75 44.39 229.39 48.95 229.39" style="fill: rgb(224, 224, 224); transform-origin: 49.88px 238.07px;" id="elj2k4c48f0d" class="animable"></polygon><g id="eljuagqwj70i"><rect x="44.39" y="249.85" width="60.98" height="14.25" style="fill: rgb(235, 235, 235); transform-origin: 74.88px 256.975px; transform: rotate(180deg);" class="animable"></rect></g><polygon points="48.95 246.73 55.37 264.1 44.39 264.1 44.39 246.73 48.95 246.73" style="fill: rgb(224, 224, 224); transform-origin: 49.88px 255.415px;" id="el65s4lyo48hd" class="animable"></polygon><g id="elhreyf5jbjdq"><rect x="44.39" y="267.19" width="60.98" height="14.25" style="fill: rgb(235, 235, 235); transform-origin: 74.88px 274.315px; transform: rotate(180deg);" class="animable"></rect></g><polygon points="48.95 264.07 55.37 281.44 44.39 281.44 44.39 264.07 48.95 264.07" style="fill: rgb(224, 224, 224); transform-origin: 49.88px 272.755px;" id="el7eua4iaqmtr" class="animable"></polygon><g id="el271fzm96v15"><rect x="44.39" y="284.53" width="60.98" height="14.25" style="fill: rgb(235, 235, 235); transform-origin: 74.88px 291.655px; transform: rotate(180deg);" class="animable"></rect></g><polygon points="48.95 281.41 55.37 298.78 44.39 298.78 44.39 281.41 48.95 281.41" style="fill: rgb(224, 224, 224); transform-origin: 49.88px 290.095px;" id="eltheuh9w8tn" class="animable"></polygon><g id="eltbgdssldtaa"><rect x="111.06" y="240.74" width="291.35" height="3.47" style="fill: rgb(235, 235, 235); transform-origin: 256.735px 242.475px; transform: rotate(180deg);" class="animable"></rect></g><g id="el8oc6sukdiwp"><rect x="111.06" y="244.32" width="291.35" height="24.61" style="fill: rgb(245, 245, 245); transform-origin: 256.735px 256.625px; transform: rotate(180deg);" class="animable"></rect></g><g id="elah8scxev93k"><rect x="110.82" y="271.55" width="291.35" height="24.61" style="fill: rgb(245, 245, 245); transform-origin: 256.495px 283.855px; transform: rotate(180deg);" class="animable"></rect></g><g id="ell1xwok1jot"><rect x="111.06" y="207.17" width="291.35" height="33.44" style="fill: rgb(245, 245, 245); transform-origin: 256.735px 223.89px; transform: rotate(180deg);" class="animable"></rect></g><g id="elia7q7c8liik"><rect x="111.06" y="204.11" width="291.35" height="3.47" style="fill: rgb(235, 235, 235); transform-origin: 256.735px 205.845px; transform: rotate(180deg);" class="animable"></rect></g><g id="elesqjez2mnmk"><rect x="110.82" y="267.91" width="291.35" height="3.47" style="fill: rgb(235, 235, 235); transform-origin: 256.495px 269.645px; transform: rotate(180deg);" class="animable"></rect></g><g id="elr66m9sfx7h"><rect x="38.12" y="295.28" width="364.04" height="45.11" style="fill: rgb(235, 235, 235); transform-origin: 220.14px 317.835px; transform: rotate(180deg);" class="animable"></rect></g><path d="M584.52,209.93s0-.25,0-.73,0-1.19,0-2.12c0-1.86,0-4.59,0-8.11,0-7.05,0-17.24-.07-29.88,0-25.26-.06-60.28-.1-99.37l.22.22h-9.16l.22-.22c-.06,64.31-.12,119-.14,139l-.07-.07,6.85.92,1.72.23.58.09-.55-.06-1.71-.2-6.91-.83h-.06v-.07c0-20.08-.08-74.73-.15-139v-.23h9.61v.22c0,39.16-.08,74.24-.1,99.54,0,12.62,0,22.79-.07,29.83,0,3.49,0,6.21,0,8.06,0,.91,0,1.6,0,2.08S584.52,209.93,584.52,209.93Z" style="fill: rgb(235, 235, 235); transform-origin: 579.995px 139.715px;" id="el9sv0z26arjq" class="animable"></path><path d="M635.12,209.52s0-.25,0-.73,0-1.19,0-2.1c0-1.86,0-4.58,0-8.09,0-7,0-17.19-.06-29.79,0-25.18-.06-60.1-.1-99.09l.23.22h-8.88l.23-.22c-.07,64.89-.13,120-.15,139.8l-.08-.07,6.65,0,1.67,0h.56l-.54,0h-1.65l-6.69,0h-.07v-.08c0-19.76-.08-74.91-.15-139.8v-.23h9.32v.22c0,39.06-.07,74-.09,99.26,0,12.58,0,22.72-.07,29.73,0,3.49,0,6.19,0,8,0,.9,0,1.6,0,2.07S635.12,209.52,635.12,209.52Z" style="fill: rgb(235, 235, 235); transform-origin: 630.75px 139.43px;" id="elrz2f3zd39d" class="animable"></path><path d="M658.56,125.47c0,.13-24.1.23-53.82.23s-53.84-.1-53.84-.23,24.1-.22,53.84-.22S658.56,125.35,658.56,125.47Z" style="fill: rgb(235, 235, 235); transform-origin: 604.73px 125.475px;" id="elmm4hgg0be4j" class="animable"></path><path d="M658.56,108.66c0,.12-24.1.22-53.82.22s-53.84-.1-53.84-.22,24.1-.22,53.84-.22S658.56,108.54,658.56,108.66Z" style="fill: rgb(235, 235, 235); transform-origin: 604.73px 108.66px;" id="elyord27364sk" class="animable"></path><path d="M658.56,91.85c0,.12-24.1.22-53.82.22s-53.84-.1-53.84-.22,24.1-.23,53.84-.23S658.56,91.72,658.56,91.85Z" style="fill: rgb(235, 235, 235); transform-origin: 604.73px 91.845px;" id="elbuu5x7x7nku" class="animable"></path><path d="M658.56,75c0,.13-24.1.23-53.82.23s-53.84-.1-53.84-.23,24.1-.22,53.84-.22S658.56,74.91,658.56,75Z" style="fill: rgb(235, 235, 235); transform-origin: 604.73px 75.005px;" id="elmq3v1x33x7" class="animable"></path><path d="M559.06,126.37a7,7,0,1,1-7-7A7,7,0,0,1,559.06,126.37Z" style="fill: rgb(250, 250, 250); transform-origin: 552.06px 126.37px;" id="elrluw6tj9czn" class="animable"></path><path d="M552.05,133.81a7.44,7.44,0,1,1,7.44-7.44A7.45,7.45,0,0,1,552.05,133.81Zm0-14a6.58,6.58,0,1,0,6.58,6.58A6.59,6.59,0,0,0,552.05,119.79Z" style="fill: rgb(235, 235, 235); transform-origin: 552.05px 126.37px;" id="elhlsingdcj3s" class="animable"></path><path d="M576.86,126.37a7,7,0,1,1-7-7A7,7,0,0,1,576.86,126.37Z" style="fill: rgb(250, 250, 250); transform-origin: 569.86px 126.37px;" id="elsjtxas5kdmd" class="animable"></path><path d="M569.86,133.81a7.44,7.44,0,1,1,7.43-7.44A7.45,7.45,0,0,1,569.86,133.81Zm0-14a6.58,6.58,0,1,0,6.58,6.58A6.59,6.59,0,0,0,569.86,119.79Z" style="fill: rgb(235, 235, 235); transform-origin: 569.85px 126.37px;" id="elv259pjy71n" class="animable"></path><path d="M594.67,126.37a7,7,0,1,1-7-7A7,7,0,0,1,594.67,126.37Z" style="fill: rgb(250, 250, 250); transform-origin: 587.67px 126.37px;" id="el4xzp7t1kygo" class="animable"></path><path d="M587.66,133.81a7.44,7.44,0,1,1,7.44-7.44A7.44,7.44,0,0,1,587.66,133.81Zm0-14a6.58,6.58,0,1,0,6.58,6.58A6.59,6.59,0,0,0,587.66,119.79Z" style="fill: rgb(235, 235, 235); transform-origin: 587.66px 126.37px;" id="eld2d0o288j9j" class="animable"></path><path d="M612.48,126.37a7,7,0,1,1-7-7A7,7,0,0,1,612.48,126.37Z" style="fill: rgb(250, 250, 250); transform-origin: 605.48px 126.37px;" id="elw4pfb8faoz" class="animable"></path><path d="M605.47,133.81a7.44,7.44,0,1,1,7.44-7.44A7.45,7.45,0,0,1,605.47,133.81Zm0-14a6.58,6.58,0,1,0,6.58,6.58A6.59,6.59,0,0,0,605.47,119.79Z" style="fill: rgb(235, 235, 235); transform-origin: 605.47px 126.37px;" id="ela0habnp2ap9" class="animable"></path><path d="M630.28,126.37a7,7,0,1,1-7-7A7,7,0,0,1,630.28,126.37Z" style="fill: rgb(250, 250, 250); transform-origin: 623.28px 126.37px;" id="el7xg867t28in" class="animable"></path><path d="M623.28,133.81a7.44,7.44,0,1,1,7.43-7.44A7.45,7.45,0,0,1,623.28,133.81Zm0-14a6.58,6.58,0,1,0,6.58,6.58A6.59,6.59,0,0,0,623.28,119.79Z" style="fill: rgb(235, 235, 235); transform-origin: 623.27px 126.37px;" id="elre0d86h4ov9" class="animable"></path><path d="M648.09,126.37a7,7,0,1,1-7-7A7,7,0,0,1,648.09,126.37Z" style="fill: rgb(250, 250, 250); transform-origin: 641.09px 126.37px;" id="elwhf8efx38p" class="animable"></path><path d="M641.08,133.81a7.44,7.44,0,1,1,7.44-7.44A7.44,7.44,0,0,1,641.08,133.81Zm0-14a6.58,6.58,0,1,0,6.58,6.58A6.59,6.59,0,0,0,641.08,119.79Z" style="fill: rgb(235, 235, 235); transform-origin: 641.08px 126.37px;" id="eliizqw6dcbhk" class="animable"></path><path d="M665.9,126.37a7,7,0,1,1-7-7A7,7,0,0,1,665.9,126.37Z" style="fill: rgb(250, 250, 250); transform-origin: 658.9px 126.37px;" id="elxgvbp6uq3s" class="animable"></path><path d="M658.89,133.81a7.44,7.44,0,1,1,7.43-7.44A7.45,7.45,0,0,1,658.89,133.81Zm0-14a6.58,6.58,0,1,0,6.58,6.58A6.59,6.59,0,0,0,658.89,119.79Z" style="fill: rgb(235, 235, 235); transform-origin: 658.88px 126.37px;" id="elvt4qs48lax" class="animable"></path><circle cx="569.86" cy="109.11" r="7.01" style="fill: rgb(250, 250, 250); transform-origin: 569.86px 109.11px;" id="elueriezyu7w" class="animable"></circle><path d="M569.86,116.55a7.44,7.44,0,1,1,7.43-7.44A7.45,7.45,0,0,1,569.86,116.55Zm0-14a6.58,6.58,0,1,0,6.58,6.58A6.59,6.59,0,0,0,569.86,102.53Z" style="fill: rgb(235, 235, 235); transform-origin: 569.85px 109.11px;" id="elr84xhnrx0ch" class="animable"></path><path d="M594.67,109.11a7,7,0,1,1-7-7A7,7,0,0,1,594.67,109.11Z" style="fill: rgb(250, 250, 250); transform-origin: 587.67px 109.11px;" id="eldxxlzib290j" class="animable"></path><path d="M587.66,116.55a7.44,7.44,0,1,1,7.44-7.44A7.44,7.44,0,0,1,587.66,116.55Zm0-14a6.58,6.58,0,1,0,6.58,6.58A6.6,6.6,0,0,0,587.66,102.53Z" style="fill: rgb(235, 235, 235); transform-origin: 587.66px 109.11px;" id="elitlcvz001m" class="animable"></path><circle cx="605.47" cy="109.11" r="7.01" style="fill: rgb(250, 250, 250); transform-origin: 605.47px 109.11px;" id="elu3smyoao8u" class="animable"></circle><path d="M605.47,116.55a7.44,7.44,0,1,1,7.44-7.44A7.45,7.45,0,0,1,605.47,116.55Zm0-14a6.58,6.58,0,1,0,6.58,6.58A6.59,6.59,0,0,0,605.47,102.53Z" style="fill: rgb(235, 235, 235); transform-origin: 605.47px 109.11px;" id="elhyrww3jkwnl" class="animable"></path><circle cx="623.28" cy="109.11" r="7.01" style="fill: rgb(250, 250, 250); transform-origin: 623.28px 109.11px;" id="el75bg90cic0g" class="animable"></circle><path d="M623.28,116.55a7.44,7.44,0,1,1,7.43-7.44A7.45,7.45,0,0,1,623.28,116.55Zm0-14a6.58,6.58,0,1,0,6.58,6.58A6.59,6.59,0,0,0,623.28,102.53Z" style="fill: rgb(235, 235, 235); transform-origin: 623.27px 109.11px;" id="elxuzzzttsgc" class="animable"></path><circle cx="641.08" cy="109.11" r="7.01" style="fill: rgb(250, 250, 250); transform-origin: 641.08px 109.11px;" id="elridenna52s" class="animable"></circle><path d="M641.08,116.55a7.44,7.44,0,1,1,7.44-7.44A7.44,7.44,0,0,1,641.08,116.55Zm0-14a6.58,6.58,0,1,0,6.58,6.58A6.59,6.59,0,0,0,641.08,102.53Z" style="fill: rgb(235, 235, 235); transform-origin: 641.08px 109.11px;" id="elohcnf3in4xf" class="animable"></path><circle cx="658.89" cy="109.11" r="7.01" style="fill: rgb(250, 250, 250); transform-origin: 658.89px 109.11px;" id="elghcyjt8b7j9" class="animable"></circle><path d="M658.89,116.55a7.44,7.44,0,1,1,7.43-7.44A7.45,7.45,0,0,1,658.89,116.55Zm0-14a6.58,6.58,0,1,0,6.58,6.58A6.59,6.59,0,0,0,658.89,102.53Z" style="fill: rgb(235, 235, 235); transform-origin: 658.88px 109.11px;" id="el3o307ymzh0i" class="animable"></path><path d="M559.06,108.92a7,7,0,1,1-7-7A7,7,0,0,1,559.06,108.92Z" style="fill: rgb(250, 250, 250); transform-origin: 552.06px 108.92px;" id="elgytko8vfy4o" class="animable"></path><path d="M552.05,116.35a7.44,7.44,0,1,1,7.44-7.43A7.44,7.44,0,0,1,552.05,116.35Zm0-14a6.58,6.58,0,1,0,6.58,6.58A6.59,6.59,0,0,0,552.05,102.34Z" style="fill: rgb(235, 235, 235); transform-origin: 552.05px 108.91px;" id="elkzom74u99s" class="animable"></path><path d="M576.86,92.07a7,7,0,1,1-7-7A7,7,0,0,1,576.86,92.07Z" style="fill: rgb(250, 250, 250); transform-origin: 569.86px 92.07px;" id="el0sqmzozzjzln" class="animable"></path><path d="M569.86,99.51a7.44,7.44,0,1,1,7.43-7.44A7.45,7.45,0,0,1,569.86,99.51Zm0-14a6.58,6.58,0,1,0,6.58,6.58A6.59,6.59,0,0,0,569.86,85.49Z" style="fill: rgb(235, 235, 235); transform-origin: 569.85px 92.07px;" id="el27mdwrc00a7" class="animable"></path><path d="M594.67,92.07a7,7,0,1,1-7-7A7,7,0,0,1,594.67,92.07Z" style="fill: rgb(250, 250, 250); transform-origin: 587.67px 92.07px;" id="el3m2wyi49ohn" class="animable"></path><path d="M587.66,99.51a7.44,7.44,0,1,1,7.44-7.44A7.44,7.44,0,0,1,587.66,99.51Zm0-14a6.58,6.58,0,1,0,6.58,6.58A6.59,6.59,0,0,0,587.66,85.49Z" style="fill: rgb(235, 235, 235); transform-origin: 587.66px 92.07px;" id="elscq9ejl8hno" class="animable"></path><path d="M612.48,92.07a7,7,0,1,1-7-7A7,7,0,0,1,612.48,92.07Z" style="fill: rgb(250, 250, 250); transform-origin: 605.48px 92.07px;" id="el8koyesaulc5" class="animable"></path><path d="M605.47,99.51a7.44,7.44,0,1,1,7.44-7.44A7.45,7.45,0,0,1,605.47,99.51Zm0-14a6.58,6.58,0,1,0,6.58,6.58A6.59,6.59,0,0,0,605.47,85.49Z" style="fill: rgb(235, 235, 235); transform-origin: 605.47px 92.07px;" id="elnriglma2ps" class="animable"></path><path d="M630.28,92.07a7,7,0,1,1-7-7A7,7,0,0,1,630.28,92.07Z" style="fill: rgb(250, 250, 250); transform-origin: 623.28px 92.07px;" id="elmlbf38ljola" class="animable"></path><path d="M623.28,99.51a7.44,7.44,0,1,1,7.43-7.44A7.45,7.45,0,0,1,623.28,99.51Zm0-14a6.58,6.58,0,1,0,6.58,6.58A6.59,6.59,0,0,0,623.28,85.49Z" style="fill: rgb(235, 235, 235); transform-origin: 623.27px 92.07px;" id="elrf9qa2q63o" class="animable"></path><path d="M648.09,92.07a7,7,0,1,1-7-7A7,7,0,0,1,648.09,92.07Z" style="fill: rgb(250, 250, 250); transform-origin: 641.09px 92.07px;" id="elh4g3wdl9zb5" class="animable"></path><path d="M641.08,99.51a7.44,7.44,0,1,1,7.44-7.44A7.44,7.44,0,0,1,641.08,99.51Zm0-14a6.58,6.58,0,1,0,6.58,6.58A6.59,6.59,0,0,0,641.08,85.49Z" style="fill: rgb(235, 235, 235); transform-origin: 641.08px 92.07px;" id="elmu2zhbnieu" class="animable"></path><path d="M665.9,92.07a7,7,0,1,1-7-7A7,7,0,0,1,665.9,92.07Z" style="fill: rgb(250, 250, 250); transform-origin: 658.9px 92.07px;" id="elpuukbzt9sg" class="animable"></path><path d="M658.89,99.51a7.44,7.44,0,1,1,7.43-7.44A7.45,7.45,0,0,1,658.89,99.51Zm0-14a6.58,6.58,0,1,0,6.58,6.58A6.59,6.59,0,0,0,658.89,85.49Z" style="fill: rgb(235, 235, 235); transform-origin: 658.88px 92.07px;" id="elz2zfbopo3z" class="animable"></path><path d="M559.06,91.87a7,7,0,1,1-7-7A7,7,0,0,1,559.06,91.87Z" style="fill: rgb(250, 250, 250); transform-origin: 552.06px 91.87px;" id="elj1giifp88mq" class="animable"></path><path d="M552.05,99.31a7.44,7.44,0,1,1,7.44-7.44A7.45,7.45,0,0,1,552.05,99.31Zm0-14a6.58,6.58,0,1,0,6.58,6.58A6.59,6.59,0,0,0,552.05,85.29Z" style="fill: rgb(235, 235, 235); transform-origin: 552.05px 91.87px;" id="el7pigi6myos" class="animable"></path><circle cx="569.86" cy="75.02" r="7.01" style="fill: rgb(250, 250, 250); transform-origin: 569.86px 75.02px;" id="el3b9c967te7" class="animable"></circle><path d="M569.86,82.46A7.44,7.44,0,1,1,577.29,75,7.45,7.45,0,0,1,569.86,82.46Zm0-14A6.58,6.58,0,1,0,576.44,75,6.59,6.59,0,0,0,569.86,68.44Z" style="fill: rgb(235, 235, 235); transform-origin: 569.85px 75.02px;" id="elvm5tmueht4" class="animable"></path><path d="M594.67,75a7,7,0,1,1-7-7A7,7,0,0,1,594.67,75Z" style="fill: rgb(250, 250, 250); transform-origin: 587.67px 75px;" id="elgjge3gjxsli" class="animable"></path><path d="M587.66,82.46A7.44,7.44,0,1,1,595.1,75,7.44,7.44,0,0,1,587.66,82.46Zm0-14A6.58,6.58,0,1,0,594.24,75,6.6,6.6,0,0,0,587.66,68.44Z" style="fill: rgb(235, 235, 235); transform-origin: 587.66px 75.02px;" id="elqo6mcymodyj" class="animable"></path><circle cx="605.47" cy="75.02" r="7.01" style="fill: rgb(250, 250, 250); transform-origin: 605.47px 75.02px;" id="elk325dehjuas" class="animable"></circle><path d="M605.47,82.46A7.44,7.44,0,1,1,612.91,75,7.45,7.45,0,0,1,605.47,82.46Zm0-14A6.58,6.58,0,1,0,612.05,75,6.59,6.59,0,0,0,605.47,68.44Z" style="fill: rgb(235, 235, 235); transform-origin: 605.47px 75.02px;" id="ely6qrd26ebdq" class="animable"></path><circle cx="623.28" cy="75.02" r="7.01" style="fill: rgb(250, 250, 250); transform-origin: 623.28px 75.02px;" id="elh8n2tbggz1r" class="animable"></circle><path d="M623.28,82.46A7.44,7.44,0,1,1,630.71,75,7.45,7.45,0,0,1,623.28,82.46Zm0-14A6.58,6.58,0,1,0,629.86,75,6.59,6.59,0,0,0,623.28,68.44Z" style="fill: rgb(235, 235, 235); transform-origin: 623.27px 75.02px;" id="elpxjompjclgi" class="animable"></path><circle cx="641.08" cy="75.02" r="7.01" style="fill: rgb(250, 250, 250); transform-origin: 641.08px 75.02px;" id="elpmhw4q6ocu" class="animable"></circle><path d="M641.08,82.46A7.44,7.44,0,1,1,648.52,75,7.44,7.44,0,0,1,641.08,82.46Zm0-14A6.58,6.58,0,1,0,647.66,75,6.59,6.59,0,0,0,641.08,68.44Z" style="fill: rgb(235, 235, 235); transform-origin: 641.08px 75.02px;" id="elho2r27ttfwo" class="animable"></path><circle cx="658.89" cy="75.02" r="7.01" style="fill: rgb(250, 250, 250); transform-origin: 658.89px 75.02px;" id="ela6fpqezfikd" class="animable"></circle><path d="M658.89,82.46A7.44,7.44,0,1,1,666.32,75,7.45,7.45,0,0,1,658.89,82.46Zm0-14A6.58,6.58,0,1,0,665.47,75,6.59,6.59,0,0,0,658.89,68.44Z" style="fill: rgb(235, 235, 235); transform-origin: 658.88px 75.02px;" id="elqcov8mm0xbk" class="animable"></path><path d="M559.06,74.83a7,7,0,1,1-7-7A7,7,0,0,1,559.06,74.83Z" style="fill: rgb(250, 250, 250); transform-origin: 552.06px 74.83px;" id="elblz8wbzftra" class="animable"></path><path d="M552.05,82.26a7.44,7.44,0,1,1,7.44-7.43A7.44,7.44,0,0,1,552.05,82.26Zm0-14a6.58,6.58,0,1,0,6.58,6.58A6.59,6.59,0,0,0,552.05,68.25Z" style="fill: rgb(235, 235, 235); transform-origin: 552.05px 74.82px;" id="elyofg372spe" class="animable"></path><rect x="631.24" y="194.31" width="72.94" height="106.86" style="fill: rgb(245, 245, 245); transform-origin: 667.71px 247.74px;" id="ell1tsdka1edk" class="animable"></rect><rect x="636.94" y="197.43" width="60.98" height="14.25" style="fill: rgb(235, 235, 235); transform-origin: 667.43px 204.555px;" id="el031qqf1grvst" class="animable"></rect><polygon points="693.36 194.31 686.94 211.68 697.92 211.68 697.92 194.31 693.36 194.31" style="fill: rgb(224, 224, 224); transform-origin: 692.43px 202.995px;" id="elv29cne0wi8" class="animable"></polygon><rect x="636.94" y="214.8" width="60.98" height="14.25" style="fill: rgb(235, 235, 235); transform-origin: 667.43px 221.925px;" id="ele1l7l0kq0qc" class="animable"></rect><polygon points="693.36 211.68 686.94 229.05 697.92 229.05 697.92 211.68 693.36 211.68" style="fill: rgb(224, 224, 224); transform-origin: 692.43px 220.365px;" id="el7kbrryizrz6" class="animable"></polygon><rect x="636.94" y="232.51" width="60.98" height="14.25" style="fill: rgb(235, 235, 235); transform-origin: 667.43px 239.635px;" id="elhy429v8pqm5" class="animable"></rect><polygon points="693.36 229.39 686.94 246.75 697.92 246.75 697.92 229.39 693.36 229.39" style="fill: rgb(224, 224, 224); transform-origin: 692.43px 238.07px;" id="elxn6axrx5xvl" class="animable"></polygon><rect x="636.94" y="249.85" width="60.98" height="14.25" style="fill: rgb(235, 235, 235); transform-origin: 667.43px 256.975px;" id="eluvrnk800ag" class="animable"></rect><polygon points="693.36 246.73 686.94 264.1 697.92 264.1 697.92 246.73 693.36 246.73" style="fill: rgb(224, 224, 224); transform-origin: 692.43px 255.415px;" id="el2rerc9sl2dr" class="animable"></polygon><rect x="636.94" y="267.19" width="60.98" height="14.25" style="fill: rgb(235, 235, 235); transform-origin: 667.43px 274.315px;" id="elvscik3pthye" class="animable"></rect><polygon points="693.36 264.07 686.94 281.44 697.92 281.44 697.92 264.07 693.36 264.07" style="fill: rgb(224, 224, 224); transform-origin: 692.43px 272.755px;" id="elveiucrxmvl" class="animable"></polygon><rect x="636.94" y="284.53" width="60.98" height="14.25" style="fill: rgb(235, 235, 235); transform-origin: 667.43px 291.655px;" id="el6r2sbncwidl" class="animable"></rect><polygon points="693.36 281.41 686.94 298.78 697.92 298.78 697.92 281.41 693.36 281.41" style="fill: rgb(224, 224, 224); transform-origin: 692.43px 290.095px;" id="elzhcw5yj74dp" class="animable"></polygon><rect x="339.89" y="240.74" width="291.35" height="3.47" style="fill: rgb(235, 235, 235); transform-origin: 485.565px 242.475px;" id="el0lpiw068obj9" class="animable"></rect><rect x="339.89" y="244.32" width="291.35" height="24.61" style="fill: rgb(245, 245, 245); transform-origin: 485.565px 256.625px;" id="el1adozf7u5mc" class="animable"></rect><rect x="340.14" y="271.55" width="291.35" height="24.61" style="fill: rgb(245, 245, 245); transform-origin: 485.815px 283.855px;" id="el5qdtwnipj9" class="animable"></rect><rect x="339.89" y="207.17" width="291.35" height="33.44" style="fill: rgb(245, 245, 245); transform-origin: 485.565px 223.89px;" id="elyv43swq7t5" class="animable"></rect><rect x="339.89" y="204.11" width="291.35" height="3.47" style="fill: rgb(235, 235, 235); transform-origin: 485.565px 205.845px;" id="elnwuj7u5qqiq" class="animable"></rect><rect x="340.14" y="267.91" width="291.35" height="3.47" style="fill: rgb(235, 235, 235); transform-origin: 485.815px 269.645px;" id="eluul3a32fl3o" class="animable"></rect><rect x="340.14" y="295.28" width="364.04" height="45.11" style="fill: rgb(235, 235, 235); transform-origin: 522.16px 317.835px;" id="elbsejsgksib" class="animable"></rect><path d="M275.72,130.2c-8.89-2.08-13.56-3.8-23.52-9.22-2-5.18-2.32-9.2-4.07-13.29-1-2.31.33-4.08,2.58-3a75,75,0,0,0,16.84,5.92C271.06,118.55,272.7,122.46,275.72,130.2Z" style="fill: rgb(224, 224, 224); transform-origin: 261.756px 117.283px;" id="elb1xgtiglz97" class="animable"></path><path d="M296.85,132c-8.05.52-12.24.28-21.13-1.79-3-7.74-4.66-11.65-8.17-19.57,8.94,2.2,13.15,2.51,21.26,2.15C292.24,120.55,293.85,124.39,296.85,132Z" style="fill: rgb(250, 250, 250); transform-origin: 282.2px 121.437px;" id="elnwto18c5j4p" class="animable"></path><path d="M428.05,92.53c-8.9-2.08-13.08-2.32-21.14-1.79-2.74-6.43-4.14-9.65-7-16.11,8.12-.36,12.33,0,21.26,2.16C424,83.09,425.32,86.24,428.05,92.53Z" style="fill: rgb(224, 224, 224); transform-origin: 413.98px 83.5192px;" id="elyhi0jt3hx5s" class="animable"></path><path d="M451.57,101.75c-10-5.43-14.63-7.15-23.52-9.22-2.73-6.29-4.1-9.44-6.88-15.74,8.94,2.2,13.62,4,23.61,9.45C447.5,92.44,448.85,95.54,451.57,101.75Z" style="fill: rgb(250, 250, 250); transform-origin: 436.37px 89.27px;" id="el4rbbbb1qdke" class="animable"></path><path d="M316.19,128.21A67,67,0,0,1,296.85,132c-3-7.6-4.61-11.44-8-19.21a68.94,68.94,0,0,0,19.5-3.31C311.65,117,313.23,120.78,316.19,128.21Z" style="fill: rgb(224, 224, 224); transform-origin: 302.52px 120.74px;" id="elq84zk6fi15" class="animable"></path><path d="M334.34,120.71a109.85,109.85,0,0,1-18.15,7.5c-3-7.43-4.54-11.18-7.88-18.74a112.24,112.24,0,0,0,18.32-7C329.87,109.84,331.42,113.49,334.34,120.71Z" style="fill: rgb(250, 250, 250); transform-origin: 321.325px 115.34px;" id="eln5ao3on1ent" class="animable"></path><path d="M351.88,111.36c-7,3.87-10.44,5.86-17.54,9.35-2.92-7.22-4.47-10.87-7.71-18.21,7.17-3.27,10.68-5.15,17.73-8.79C347.5,100.82,349,104.35,351.88,111.36Z" style="fill: rgb(224, 224, 224); transform-origin: 339.255px 107.21px;" id="elmhyo6fjjvsn" class="animable"></path><path d="M369.43,102c-7.1,3.49-10.57,5.49-17.55,9.35-2.87-7-4.38-10.54-7.52-17.65,7.06-3.64,10.56-5.52,17.74-8.8C365.13,91.79,366.6,95.21,369.43,102Z" style="fill: rgb(250, 250, 250); transform-origin: 356.895px 98.125px;" id="elec6fwrwryr" class="animable"></path><path d="M387.57,94.52A110.06,110.06,0,0,0,369.43,102c-2.83-6.8-4.3-10.22-7.33-17.1a111,111,0,0,1,18.32-7C383.36,84.6,384.79,87.92,387.57,94.52Z" style="fill: rgb(224, 224, 224); transform-origin: 374.835px 89.95px;" id="elzy55ourjmf" class="animable"></path><path d="M406.91,90.74a67.13,67.13,0,0,0-19.34,3.78c-2.78-6.6-4.21-9.92-7.15-16.57a68.81,68.81,0,0,1,19.49-3.32C402.77,81.09,404.17,84.31,406.91,90.74Z" style="fill: rgb(250, 250, 250); transform-origin: 393.665px 84.575px;" id="elm3s4me2b61" class="animable"></path><path d="M434.83,108.34c8.91,2,13.58,3.66,23.58,9-2.71-6.2-4.07-9.3-6.79-15.5-10-5.42-14.63-7.14-23.52-9.22C430.82,98.94,432.17,102.08,434.83,108.34Z" style="fill: rgb(224, 224, 224); transform-origin: 443.255px 104.98px;" id="elextqd1d9oqk" class="animable"></path><path d="M413.68,106.87c8.06-.67,12.25-.5,21.15,1.47-2.66-6.26-4-9.4-6.73-15.69C419.21,90.57,415,90.34,407,90.86,409.71,97.29,411.06,100.49,413.68,106.87Z" style="fill: rgb(250, 250, 250); transform-origin: 420.915px 99.4818px;" id="el8r5htozceld" class="animable"></path><path d="M282.66,149.47c8.91,2,13.1,2.14,21.15,1.47-2.51-7.44-3.9-11.2-6.9-18.8-8.05.52-12.24.29-21.13-1.79C278.8,138.09,280.18,141.91,282.66,149.47Z" style="fill: rgb(224, 224, 224); transform-origin: 289.795px 140.826px;" id="elsnr12b8tfrj" class="animable"></path><path d="M259.08,140.44c10,5.38,14.68,7.06,23.58,9-2.48-7.56-3.86-11.38-6.88-19.12-8.89-2.08-13.56-3.8-23.52-9.22C255.28,129,256.65,132.82,259.08,140.44Z" style="fill: rgb(250, 250, 250); transform-origin: 267.46px 135.27px;" id="el8hfufezc7a" class="animable"></path><path d="M394.36,111.07a66.29,66.29,0,0,1,19.32-4.2c-2.62-6.38-4-9.58-6.71-16a67.41,67.41,0,0,0-19.34,3.79C390.41,101.24,391.76,104.53,394.36,111.07Z" style="fill: rgb(224, 224, 224); transform-origin: 400.655px 100.97px;" id="ele9b213fpwtu" class="animable"></path><path d="M376.25,119a110.5,110.5,0,0,1,18.11-8c-2.6-6.54-3.95-9.83-6.73-16.42a109.4,109.4,0,0,0-18.14,7.5C372.31,108.94,373.66,112.32,376.25,119Z" style="fill: rgb(250, 250, 250); transform-origin: 381.925px 106.79px;" id="elo1a1ld1ydb" class="animable"></path><path d="M358.75,128.91c7-4.07,10.42-6.17,17.5-9.87-2.59-6.72-3.94-10.1-6.76-16.89-7.1,3.49-10.57,5.48-17.55,9.35C354.81,118.51,356.18,122,358.75,128.91Z" style="fill: rgb(224, 224, 224); transform-origin: 364.095px 115.53px;" id="el1lccdg2p15y" class="animable"></path><path d="M341.25,138.77c7.08-3.69,10.54-5.79,17.5-9.86-2.57-6.92-3.94-10.4-6.81-17.41-7,3.87-10.45,5.86-17.55,9.36C337.31,128.08,338.69,131.66,341.25,138.77Z" style="fill: rgb(250, 250, 250); transform-origin: 346.57px 125.135px;" id="el1f3ofjcnpez" class="animable"></path><path d="M323.14,146.75a109.71,109.71,0,0,0,18.11-8c-2.56-7.11-3.94-10.69-6.86-17.91a110.21,110.21,0,0,1-18.14,7.49C319.21,135.78,320.6,139.46,323.14,146.75Z" style="fill: rgb(224, 224, 224); transform-origin: 328.75px 133.795px;" id="elqukrtmcxfg" class="animable"></path><path d="M303.81,150.94a66.35,66.35,0,0,0,19.33-4.19c-2.54-7.29-3.93-11-6.89-18.4a67,67,0,0,1-19.34,3.79C299.91,139.74,301.3,143.5,303.81,150.94Z" style="fill: rgb(250, 250, 250); transform-origin: 310.025px 139.645px;" id="el00btmdaroaa5q" class="animable"></path><path d="M288.05,167.82c-9-1.89-13.7-3.54-23.79-8.89-1.78-7.44-2.85-11.21-5.29-18.84,10,5.37,14.67,7,23.58,9C285,156.69,286.15,160.42,288.05,167.82Z" style="fill: rgb(224, 224, 224); transform-origin: 273.51px 153.955px;" id="elpgd736lkkx" class="animable"></path><path d="M309.37,169c-8.12.8-12.34.68-21.32-1.21-1.9-7.4-3-11.13-5.5-18.7,8.9,2,13.09,2.15,21.15,1.48C306.22,158,307.37,161.73,309.37,169Z" style="fill: rgb(250, 250, 250); transform-origin: 295.96px 159.279px;" id="elwa0smg96dl" class="animable"></path><path d="M441.29,123.7c-9-1.89-13.21-2-21.32-1.21-2.5-6.35-3.78-9.53-6.41-15.91,8.05-.67,12.24-.5,21.15,1.47C437.37,114.32,438.69,117.45,441.29,123.7Z" style="fill: rgb(224, 224, 224); transform-origin: 427.425px 114.963px;" id="el6z5v09xv59e" class="animable"></path><path d="M465.08,132.59c-10.09-5.35-14.81-7-23.79-8.89-2.6-6.25-3.92-9.38-6.58-15.65,8.9,2,13.58,3.66,23.58,9Z" style="fill: rgb(250, 250, 250); transform-origin: 449.895px 120.32px;" id="eliupmctoeg6r" class="animable"></path><path d="M328.83,164.47c-7.49,2.72-11.35,3.76-19.46,4.56-2-7.3-3.15-11-5.67-18.43A66.28,66.28,0,0,0,323,146.41C325.57,153.7,326.74,157.31,328.83,164.47Z" style="fill: rgb(224, 224, 224); transform-origin: 316.265px 157.72px;" id="elbul5j70a3pe" class="animable"></path><path d="M347.06,156.08a112.15,112.15,0,0,1-18.23,8.39c-2.09-7.16-3.26-10.77-5.81-18.06a110.5,110.5,0,0,0,18.11-8C343.7,145.55,344.89,149.08,347.06,156.08Z" style="fill: rgb(250, 250, 250); transform-origin: 335.04px 151.44px;" id="elhq6ozlzajpf" class="animable"></path><path d="M364.67,145.76c-7,4.25-10.48,6.45-17.61,10.32-2.17-7-3.36-10.53-5.93-17.64,7.08-3.69,10.54-5.79,17.5-9.85C361.21,135.5,362.42,138.94,364.67,145.76Z" style="fill: rgb(224, 224, 224); transform-origin: 352.9px 142.335px;" id="el3dyt4dwsml4" class="animable"></path><path d="M382.28,135.44c-7.13,3.87-10.61,6.06-17.61,10.32-2.25-6.82-3.46-10.26-6-17.17,7-4.07,10.42-6.17,17.5-9.86C378.72,125.45,380,128.79,382.28,135.44Z" style="fill: rgb(250, 250, 250); transform-origin: 370.475px 132.245px;" id="el3lgl4wdwuge" class="animable"></path><path d="M400.51,127.05a110.93,110.93,0,0,0-18.23,8.39c-2.33-6.65-3.56-10-6.15-16.71a110.5,110.5,0,0,1,18.11-8C396.84,117.31,398.1,120.56,400.51,127.05Z" style="fill: rgb(224, 224, 224); transform-origin: 388.32px 123.085px;" id="eloezye3xwv0r" class="animable"></path><path d="M420,122.49c-8.12.8-12,1.84-19.46,4.56-2.41-6.49-3.67-9.74-6.27-16.29a66.27,66.27,0,0,1,19.32-4.18C416.19,113,417.47,116.14,420,122.49Z" style="fill: rgb(250, 250, 250); transform-origin: 407.135px 116.815px;" id="elu4p9m6vsva" class="animable"></path><path d="M447.74,139.42c9.13,1.82,13.93,3.45,24.18,8.79-2.71-6.2-4.07-9.3-6.79-15.5-10.09-5.35-14.81-7-23.79-8.89C443.94,130.07,445.22,133.19,447.74,139.42Z" style="fill: rgb(224, 224, 224); transform-origin: 456.63px 136.015px;" id="elyc6v356bg2" class="animable"></path><path d="M426.08,138.44c8.25-.91,12.54-.84,21.66,1-2.52-6.23-3.8-9.35-6.4-15.6-9-1.89-13.21-2-21.32-1.2C422.51,129,423.73,132.13,426.08,138.44Z" style="fill: rgb(250, 250, 250); transform-origin: 433.88px 130.805px;" id="elcaec5o7g6v" class="animable"></path><path d="M292,186.25c9.13,1.83,13.42,1.89,21.67,1-1.43-7.16-2.29-10.77-4.29-18.07-8.12.8-12.34.69-21.32-1.2C290,175.36,290.78,179,292,186.25Z" style="fill: rgb(224, 224, 224); transform-origin: 300.865px 177.895px;" id="ell2coci8mmuq" class="animable"></path><path d="M267.85,177.46c10.26,5.34,15.06,7,24.18,8.79-1.25-7.23-2-10.89-3.94-18.28-9-1.89-13.7-3.54-23.8-8.89A173.79,173.79,0,0,1,267.85,177.46Z" style="fill: rgb(250, 250, 250); transform-origin: 278.16px 172.665px;" id="elx59wh536fv" class="animable"></path><path d="M406.3,143.32c7.62-2.87,11.53-4,19.78-4.88-2.35-6.31-3.57-9.48-6.06-15.82a66.65,66.65,0,0,0-19.47,4.55C403,133.66,404.11,136.89,406.3,143.32Z" style="fill: rgb(224, 224, 224); transform-origin: 413.315px 132.97px;" id="elo4wyhh8tf1" class="animable"></path><path d="M387.78,152.1a115,115,0,0,1,18.52-8.78c-2.19-6.43-3.34-9.66-5.75-16.15a112.59,112.59,0,0,0-18.23,8.4C384.65,142.22,385.74,145.53,387.78,152.1Z" style="fill: rgb(250, 250, 250); transform-origin: 394.31px 139.635px;" id="eliuot7peukq" class="animable"></path><path d="M369.89,162.84c7.11-4.43,10.65-6.71,17.89-10.74-2-6.57-3.13-9.88-5.46-16.53-7.12,3.88-10.6,6.07-17.61,10.33C367,152.72,368,156.1,369.89,162.84Z" style="fill: rgb(224, 224, 224); transform-origin: 376.245px 149.205px;" id="el2l29a5t7x03" class="animable"></path><path d="M352,173.57c7.24-4,10.77-6.31,17.89-10.73-1.89-6.74-2.93-10.12-5.18-16.94-7,4.25-10.48,6.44-17.61,10.32C349.27,163.21,350.26,166.68,352,173.57Z" style="fill: rgb(250, 250, 250); transform-origin: 358.495px 159.735px;" id="elsup9rpt9cg" class="animable"></path><path d="M333.48,182.36A115.46,115.46,0,0,0,352,173.57c-1.74-6.89-2.73-10.36-4.9-17.35a111.81,111.81,0,0,1-18.23,8.4C331,171.78,331.89,175.32,333.48,182.36Z" style="fill: rgb(224, 224, 224); transform-origin: 340.435px 169.29px;" id="el606mztm5e53" class="animable"></path><path d="M313.7,187.24c8.24-.91,12.16-2,19.78-4.88-1.59-7-2.52-10.58-4.61-17.74a66.51,66.51,0,0,1-19.46,4.55C311.41,176.47,312.27,180.08,313.7,187.24Z" style="fill: rgb(250, 250, 250); transform-origin: 321.445px 175.93px;" id="el3nww0pus6mi" class="animable"></path><path d="M294.31,204.28c-9.35-1.77-14.26-3.39-24.76-8.73a144.23,144.23,0,0,0-1.67-17.94c10.26,5.34,15.05,7,24.18,8.79A163,163,0,0,1,294.31,204.28Z" style="fill: rgb(224, 224, 224); transform-origin: 281.095px 190.945px;" id="elm73klnjmnhr" class="animable"></path><path d="M316.51,205.08c-8.46,1-12.86,1-22.2-.8a163,163,0,0,0-2.25-17.88c9.13,1.82,13.42,1.89,21.67,1C315.15,194.53,315.71,198.07,316.51,205.08Z" style="fill: rgb(250, 250, 250); transform-origin: 304.285px 196.076px;" id="elxanfzi3byxq" class="animable"></path><path d="M454,155.1c-9.35-1.78-13.74-1.81-22.2-.8-2.19-6.28-3.33-9.42-5.68-15.74,8.25-.91,12.54-.84,21.66,1C450.32,145.77,451.56,148.88,454,155.1Z" style="fill: rgb(224, 224, 224); transform-origin: 440.06px 146.544px;" id="elybl9svpg5ye" class="animable"></path><path d="M478.77,163.84c-10.5-5.35-15.41-7-24.76-8.74-2.45-6.22-3.69-9.33-6.22-15.56,9.13,1.83,13.93,3.45,24.19,8.79C474.69,154.53,476.05,157.64,478.77,163.84Z" style="fill: rgb(250, 250, 250); transform-origin: 463.28px 151.69px;" id="elnutghx0nsig" class="animable"></path><path d="M336.79,199.93c-7.82,3-11.83,4.15-20.28,5.15-.8-7-1.36-10.55-2.78-17.7,8.24-.91,12.16-2,19.78-4.88C335.09,189.53,335.75,193,336.79,199.93Z" style="fill: rgb(224, 224, 224); transform-origin: 325.26px 193.79px;" id="el9k5uamvmxg" class="animable"></path><path d="M355.79,190.8a120,120,0,0,1-19,9.13c-1-6.91-1.7-10.4-3.28-17.43A115.06,115.06,0,0,0,352,173.71C353.77,180.6,354.52,184,355.79,190.8Z" style="fill: rgb(250, 250, 250); transform-origin: 344.65px 186.82px;" id="eluvr5x71n61" class="animable"></path><path d="M374.16,179.69c-7.31,4.58-10.94,6.93-18.37,11.11-1.27-6.78-2-10.2-3.76-17.09,7.24-4,10.78-6.31,17.9-10.74C371.81,169.7,372.66,173.05,374.16,179.69Z" style="fill: rgb(224, 224, 224); transform-origin: 363.095px 176.885px;" id="elbrl8qds1ux" class="animable"></path><path d="M392.52,168.58c-7.43,4.18-11.06,6.53-18.36,11.11-1.5-6.64-2.35-10-4.23-16.72,7.11-4.42,10.65-6.7,17.89-10.74C389.86,158.81,390.8,162.07,392.52,168.58Z" style="fill: rgb(250, 250, 250); transform-origin: 381.225px 165.96px;" id="el0423n0gcylrk" class="animable"></path><path d="M411.53,159.45a120,120,0,0,0-19,9.13c-1.72-6.51-2.66-9.77-4.7-16.35a115.1,115.1,0,0,1,18.53-8.78C408.53,149.87,409.57,153.08,411.53,159.45Z" style="fill: rgb(224, 224, 224); transform-origin: 399.68px 156.015px;" id="el2gc6dm33o5j" class="animable"></path><path d="M431.81,154.3c-8.45,1-12.47,2.17-20.28,5.15-2-6.37-3-9.58-5.18-16,7.62-2.87,11.53-4,19.78-4.89C428.48,144.88,429.62,148,431.81,154.3Z" style="fill: rgb(250, 250, 250); transform-origin: 419.08px 149.005px;" id="eli6m3s4d6svf" class="animable"></path><path d="M460.07,170.73c9.66,1.75,14.72,3.36,25.54,8.73-2.71-6.2-4.07-9.3-6.79-15.5-10.5-5.35-15.41-7-24.76-8.74C456.51,161.43,457.71,164.54,460.07,170.73Z" style="fill: rgb(224, 224, 224); transform-origin: 469.835px 167.34px;" id="eli5m2tgrwtpa" class="animable"></path><path d="M437.13,170.07c8.75-1.08,13.29-1.08,22.94.66-2.36-6.19-3.56-9.3-6-15.51-9.35-1.77-13.75-1.8-22.2-.8C434.05,160.7,435.11,163.83,437.13,170.07Z" style="fill: rgb(250, 250, 250); transform-origin: 445.97px 162.244px;" id="elwyvmodi70rs" class="animable"></path><path d="M294.73,221.93c9.65,1.74,14.19,1.74,22.94.66a153.33,153.33,0,0,0-1.15-17.37c-8.45,1-12.85,1-22.2-.79A138.81,138.81,0,0,1,294.73,221.93Z" style="fill: rgb(224, 224, 224); transform-origin: 305.995px 213.881px;" id="eljh2h5bsifz" class="animable"></path><path d="M269.19,213.2c10.82,5.37,15.88,7,25.54,8.73a138.81,138.81,0,0,0-.41-17.5c-9.35-1.78-14.26-3.39-24.77-8.74A121.39,121.39,0,0,1,269.19,213.2Z" style="fill: rgb(250, 250, 250); transform-origin: 282.015px 208.81px;" id="elsqxapp5jr2" class="animable"></path><path d="M416.14,175.46c8.09-3.1,12.25-4.31,21-5.39-2-6.24-3.08-9.37-5.27-15.65-8.46,1-12.48,2.17-20.29,5.16C413.52,166,414.44,169.13,416.14,175.46Z" style="fill: rgb(224, 224, 224); transform-origin: 424.36px 164.94px;" id="el2j1t5qnrm7s" class="animable"></path><path d="M396.44,184.89a126.45,126.45,0,0,1,19.7-9.43c-1.7-6.33-2.62-9.5-4.57-15.88a119.63,119.63,0,0,0-19,9.13C394.28,175.21,395.06,178.45,396.44,184.89Z" style="fill: rgb(250, 250, 250); transform-origin: 404.355px 172.235px;" id="elk3upji2483" class="animable"></path><path d="M377.4,196.33c7.57-4.71,11.34-7.13,19-11.44-1.38-6.44-2.16-9.68-3.88-16.18-7.43,4.18-11.07,6.54-18.37,11.11C375.68,186.47,376.33,189.77,377.4,196.33Z" style="fill: rgb(224, 224, 224); transform-origin: 385.275px 182.52px;" id="elieq5y76ncpq" class="animable"></path><path d="M358.35,207.77c7.71-4.31,11.47-6.73,19-11.44-1.07-6.56-1.72-9.86-3.21-16.51-7.31,4.58-10.94,6.94-18.37,11.12C357.08,197.72,357.6,201.09,358.35,207.77Z" style="fill: rgb(250, 250, 250); transform-origin: 366.56px 193.795px;" id="elkxeel33o9zk" class="animable"></path><path d="M338.66,217.2a126.35,126.35,0,0,0,19.69-9.43c-.75-6.68-1.27-10.05-2.53-16.83a120,120,0,0,1-19,9.13A172.26,172.26,0,0,1,338.66,217.2Z" style="fill: rgb(224, 224, 224); transform-origin: 347.585px 204.07px;" id="elo9nzlwyj67m" class="animable"></path><path d="M317.67,222.59c8.74-1.08,12.9-2.29,21-5.39a172.26,172.26,0,0,0-1.85-17.13c-7.82,3-11.83,4.15-20.29,5.15A153.33,153.33,0,0,1,317.67,222.59Z" style="fill: rgb(250, 250, 250); transform-origin: 327.6px 211.33px;" id="el8kjhlv3xj03" class="animable"></path><path d="M315.9,383.07l-5.29,1.2L244.71,93.05a2.72,2.72,0,0,1,2-3.25h0a2.72,2.72,0,0,1,3.25,2Z" style="fill: rgb(224, 224, 224); transform-origin: 280.27px 237px;" id="elehrcnx1p05p" class="animable"></path><path d="M277.73,52.15c.59-4.28-5.45-7.8-10-8.16-2.16-.18-4.41.15-6.46-.56-4.44-1.55-6.21-7.28-10.55-9.11-3.24-1.37-7-.15-10.11,1.43s-6.24,3.57-9.75,3.79c-3,.2-6.36-.93-9,.56-2,1.11-3,3.4-4.87,4.75s-4.13,1.61-6.36,1.73-4.53.14-6.55,1.07-3.71,3.07-3.29,5.26Z" style="fill: rgb(235, 235, 235); transform-origin: 239.248px 43.318px;" id="elhp4dbthdkjp" class="animable"></path><path d="M510.68,69.52c.46-3.36-4.29-6.13-7.85-6.42-1.7-.13-3.47.13-5.08-.44-3.49-1.21-4.88-5.72-8.29-7.16-2.55-1.07-5.48-.12-7.95,1.13s-4.9,2.8-7.66,3c-2.4.15-5-.74-7.1.43-1.57.88-2.39,2.68-3.83,3.74a9.17,9.17,0,0,1-5,1.36,13.93,13.93,0,0,0-5.15.84c-1.59.73-2.91,2.41-2.58,4.14Z" style="fill: rgb(235, 235, 235); transform-origin: 480.425px 62.5879px;" id="ele1zyxes1a2i" class="animable"></path><path d="M191.92,175.68c.46-3.36-4.29-6.13-7.85-6.41-1.7-.14-3.47.12-5.08-.44-3.49-1.22-4.89-5.73-8.29-7.17-2.55-1.07-5.48-.11-7.95,1.13s-4.9,2.8-7.66,3c-2.4.15-5-.74-7.1.44-1.57.87-2.39,2.67-3.83,3.74a9.08,9.08,0,0,1-5,1.35,14.14,14.14,0,0,0-5.15.84c-1.6.73-2.91,2.42-2.58,4.14Z" style="fill: rgb(235, 235, 235); transform-origin: 161.665px 168.749px;" id="elj73tbroh99" class="animable"></path><path d="M660.41,159.34c.43-3.17-4-5.77-7.39-6-1.6-.13-3.26.11-4.77-.41-3.29-1.15-4.6-5.39-7.81-6.74-2.39-1-5.15-.11-7.47,1s-4.62,2.64-7.22,2.81c-2.25.15-4.71-.69-6.68.41-1.47.82-2.24,2.52-3.6,3.52a8.58,8.58,0,0,1-4.7,1.27,13.23,13.23,0,0,0-4.86.8,3.83,3.83,0,0,0-2.42,3.89Z" style="fill: rgb(245, 245, 245); transform-origin: 631.958px 152.823px;" id="elb4hp4zejnel" class="animable"></path></g><g id="freepik--Floor--inject-96" class="animable animator-active" style="transform-origin: 375px 411.82px;"><path d="M729.17,411.82c0,.14-158.58.26-354.15.26S20.83,412,20.83,411.82s158.55-.26,354.19-.26S729.17,411.68,729.17,411.82Z" style="fill: rgb(38, 50, 56); transform-origin: 375px 411.82px;" id="elpl0x6fknto" class="animable"></path></g><g id="freepik--Plants--inject-96" class="animable" style="transform-origin: 351.005px 443.63px;"><path d="M361.49,447a78.27,78.27,0,0,1-5.78-6.93,80.9,80.9,0,0,1-5.38-7.26,78.27,78.27,0,0,1,5.78,6.93A79.27,79.27,0,0,1,361.49,447Z" style="fill: rgb(38, 50, 56); transform-origin: 355.91px 439.905px;" id="elwwqz70sfuyi" class="animable"></path><path d="M365,424.48a26.78,26.78,0,0,1-.08,3.36c-.09,2.07-.14,4.93,0,8.08s.41,6,.67,8.06a29.56,29.56,0,0,1,.36,3.34,2.93,2.93,0,0,1-.26-.87c-.13-.57-.3-1.39-.47-2.42a67.62,67.62,0,0,1-.82-8.09,65.69,65.69,0,0,1,.16-8.12c.09-1,.18-1.88.27-2.45A3.23,3.23,0,0,1,365,424.48Z" style="fill: rgb(38, 50, 56); transform-origin: 365.146px 435.9px;" id="els509nrypcgk" class="animable"></path><path d="M375.86,432.87c.14.08-1.35,2.82-2.52,6.45s-1.6,6.73-1.76,6.7a6.88,6.88,0,0,1,.13-2,30.13,30.13,0,0,1,3.05-9.38A6.88,6.88,0,0,1,375.86,432.87Z" style="fill: rgb(38, 50, 56); transform-origin: 373.713px 439.445px;" id="elntq69tqjwv" class="animable"></path><path d="M599.67,458.46a159.33,159.33,0,0,1-11.16-14.2,82.4,82.4,0,0,1,5.79,6.94A78.59,78.59,0,0,1,599.67,458.46Z" style="fill: rgb(38, 50, 56); transform-origin: 594.09px 451.36px;" id="elr6u4bgrb1hb" class="animable"></path><path d="M603.22,435.9a26.78,26.78,0,0,1-.08,3.36c-.09,2.07-.14,4.93,0,8.08s.42,6,.67,8.06a26.9,26.9,0,0,1,.36,3.34,2.93,2.93,0,0,1-.26-.87c-.13-.57-.3-1.4-.47-2.42a67.62,67.62,0,0,1-.82-8.09,65.91,65.91,0,0,1,.16-8.13c.09-1,.18-1.87.27-2.44A3.11,3.11,0,0,1,603.22,435.9Z" style="fill: rgb(38, 50, 56); transform-origin: 603.366px 447.32px;" id="el7m990txpafx" class="animable"></path><path d="M614,444.29c.14.08-1.35,2.82-2.52,6.45s-1.6,6.73-1.76,6.7a6.88,6.88,0,0,1,.13-2,29.47,29.47,0,0,1,1.14-4.82,30,30,0,0,1,1.91-4.56A6.88,6.88,0,0,1,614,444.29Z" style="fill: rgb(38, 50, 56); transform-origin: 611.853px 450.865px;" id="el3ha2jl2v2r7" class="animable"></path><path d="M99.15,462.51a80.47,80.47,0,0,1-5.79-6.94A76.41,76.41,0,0,1,88,448.31a79.4,79.4,0,0,1,5.78,6.94A77.7,77.7,0,0,1,99.15,462.51Z" style="fill: rgb(38, 50, 56); transform-origin: 93.575px 455.41px;" id="elgt4um1ghms" class="animable"></path><path d="M102.7,439.94a26.78,26.78,0,0,1-.08,3.36c-.09,2.07-.14,4.93,0,8.09s.41,6,.66,8.05a32.07,32.07,0,0,1,.37,3.34,2.67,2.67,0,0,1-.26-.87c-.14-.56-.3-1.39-.47-2.42a67.3,67.3,0,0,1-.66-16.21c.09-1,.18-1.87.27-2.45A3.37,3.37,0,0,1,102.7,439.94Z" style="fill: rgb(38, 50, 56); transform-origin: 102.847px 451.36px;" id="elgxul93ogtk8" class="animable"></path><path d="M113.52,448.34c.14.07-1.35,2.81-2.52,6.45s-1.6,6.72-1.76,6.7a6.55,6.55,0,0,1,.13-2.05,29.62,29.62,0,0,1,1.14-4.81,30,30,0,0,1,1.91-4.56A6.34,6.34,0,0,1,113.52,448.34Z" style="fill: rgb(38, 50, 56); transform-origin: 111.37px 454.915px;" id="elygzpzmke0f" class="animable"></path></g><g id="freepik--Car--inject-96" class="animable" style="transform-origin: 375.007px 335.112px;"><polygon points="606.62 398.99 140.94 398.99 140.94 330.04 206.47 316.6 511.68 314.32 606.62 330.04 606.62 398.99" style="fill: rgb(38, 50, 56); transform-origin: 373.78px 356.655px;" id="elj3h2b3vqpj" class="animable"></polygon><g id="elwqjpmxcxeha"><g style="opacity: 0.3; transform-origin: 373.78px 356.655px;" class="animable"><polygon points="606.62 398.99 140.94 398.99 140.94 330.04 206.47 316.6 511.68 314.32 606.62 330.04 606.62 398.99" id="elzko8pn36m5k" class="animable" style="transform-origin: 373.78px 356.655px;"></polygon></g></g><path d="M535.59,290.62s29-27,46.33-30.69,75.28,0,75.28,0l2.58,25.3L629.3,289l-31.61-12.74-10.59,9.88,1.41,18.6-37.7-6.42Z" style="fill: rgb(38, 50, 56); transform-origin: 597.685px 281.515px;" id="elplm5a01vak9" class="animable"></path><path d="M114.7,379.47,115,363c-1.56.69-6.79-1.4-5.21-6.09,7.27-21.47,56.15-38.55,86.54-43.38s46.06-3.2,46.06-3.2c1.44.7,71.4-36.18,103.23-41s42-6,91.65.77,143.24,30.38,154.81,34.53,33.46,4.53,33.46,4.53c16.83,10.76,10.08,48.55,10.25,50.68l6,2.46-11.73,42.34s-4.75,1.44-51.76,2.25a45.57,45.57,0,1,0-51.12.84c-18.61.29-30.5-.23-30.37-.36.35-.34-174.81.47-272.51.58a45.58,45.58,0,1,0-49.11.06L160,408l-66.8-3.39C80.13,397.78,114.46,378.83,114.7,379.47Z" style="fill: rgb(224, 224, 224); transform-origin: 366.011px 336.689px;" id="elf9l4z6i7fit" class="animable"></path><path d="M299,321.37c-3.16-5,9.62-12.42,9.62-12.42l-58.68-2c-4.38,2.05-7,3.24-7.32,3.1,0,0-15.68-1.61-46.06,3.21S116.28,335,109,356.43c-1.58,4.69,4.3,7.62,5.86,6.93l-.17,16.11c10.72-6.78,31.3-20.21,38.7-27.52a15,15,0,0,1,5.81-3A45.57,45.57,0,0,1,200,323.79c15.9,0,27.83,9.42,37.63,20.07L413,336S302.14,326.4,299,321.37Z" style="fill: rgb(243, 16, 16); transform-origin: 260.866px 343.21px;" id="el7lash6c5uhj" class="animable"></path><path d="M509.78,370.06s0-.08,0-.11h0a42.17,42.17,0,0,1,84.33-1.22h0s0,.07,0,.11v.3a42.18,42.18,0,1,1-84.36,1.22c0-.08,0-.16,0-.24S509.78,370.08,509.78,370.06Z" style="fill: rgb(38, 50, 56); transform-origin: 551.932px 369.664px;" id="elghqsbryu6cf" class="animable"></path><circle cx="551.96" cy="369.75" r="26.77" style="fill: rgb(245, 245, 245); transform-origin: 551.96px 369.75px;" id="elmmicd7lfqis" class="animable"></circle><circle cx="551.96" cy="369.75" r="25.27" style="fill: rgb(224, 224, 224); transform-origin: 551.96px 369.75px;" id="ellgo037h2gm" class="animable"></circle><circle cx="551.96" cy="369.75" r="19.84" style="fill: rgb(38, 50, 56); transform-origin: 551.96px 369.75px;" id="elkejv1phet3" class="animable"></circle><path d="M540,388.46c.8-1.28,24.41-33.52,25.52-34.84l-1-.8-.86-1.29c-.2.14-26,35-26.26,35.89l1.35.34Z" style="fill: rgb(224, 224, 224); transform-origin: 551.46px 369.995px;" id="elnwh43u1cbfe" class="animable"></path><path d="M531.05,378.87c1.39-.58,39.34-13.1,41-13.54l-.31-1.2,0-1.55h0c-.28,0-41.51,13.33-42.24,13.95l1.81,2.13-.9-1.06Z" style="fill: rgb(224, 224, 224); transform-origin: 550.775px 370.725px;" id="eltn6eb1queil" class="animable"></path><path d="M572.9,378.87l.46-1.16,1-1.22c-.2-.15-41.16-13.69-42.31-13.69h0l.1,1.4-.28,1.36C533.28,365.92,571.3,378.24,572.9,378.87Z" style="fill: rgb(224, 224, 224); transform-origin: 553.115px 370.835px;" id="elo5k9ttl76d" class="animable"></path><path d="M563.87,390.6l.75-1.18,1-.93c-1-1.16-24.11-33.73-25-35.2l-1.06.65-1.49.41C538.15,354.59,563.06,390.09,563.87,390.6Z" style="fill: rgb(224, 224, 224); transform-origin: 551.845px 371.945px;" id="el7puy0mx42zo" class="animable"></path><path d="M549.92,392,552.5,391l-1.29.53,1.39-.16c-.12-1.5-.27-41.46-.16-43.19l-1.25-.07-1.46-.53C549.65,347.78,549.56,391.14,549.92,392Z" style="fill: rgb(224, 224, 224); transform-origin: 551.129px 369.79px;" id="el6f5v19m49zw" class="animable"></path><path d="M543,369.73a8.09,8.09,0,1,0,8.09-8.08A8.09,8.09,0,0,0,543,369.73Z" style="fill: rgb(69, 90, 100); transform-origin: 551.09px 369.74px;" id="elsdi8buygo2h" class="animable"></path><path d="M542.35,369.73a8.78,8.78,0,1,1,8.78,8.78A8.79,8.79,0,0,1,542.35,369.73Zm1.39,0a7.39,7.39,0,1,0,7.39-7.39A7.39,7.39,0,0,0,543.74,369.73Z" style="fill: rgb(224, 224, 224); transform-origin: 551.13px 369.73px;" id="elsvm0v1gwjv" class="animable"></path><path d="M584.78,369.75h3.73a37.35,37.35,0,0,0-37.3-37.3v3.73A33.61,33.61,0,0,1,584.78,369.75Z" style="fill: rgb(243, 16, 16); transform-origin: 569.86px 351.1px;" id="elwxn3o7qviik" class="animable"></path><path d="M514.37,375.61l3.68-.58a33.18,33.18,0,0,1-.42-5.28h-3.72A36.86,36.86,0,0,0,514.37,375.61Z" style="fill: rgb(243, 16, 16); transform-origin: 515.98px 372.68px;" id="elyra2sl66tw" class="animable"></path><path d="M528.34,399.22l2.28-2.94a33.88,33.88,0,0,0,7.23,4.29L536.37,404A37.2,37.2,0,0,1,528.34,399.22ZM517,384.58l3.42-1.48a33.63,33.63,0,0,0,4.29,7.23l-2.94,2.29A37.31,37.31,0,0,1,517,384.58Z" style="fill: rgb(243, 16, 16); transform-origin: 527.425px 393.55px;" id="elj1z7mu9pav" class="animable"></path><path d="M551.21,407.05v-3.72a34.48,34.48,0,0,1-5.28-.41l-.58,3.67A37,37,0,0,0,551.21,407.05Z" style="fill: rgb(243, 16, 16); transform-origin: 548.28px 404.985px;" id="ellfdfipuaour" class="animable"></path><path d="M157.74,369.81s0-.08,0-.11h0a42.17,42.17,0,0,1,84.33-1.22h0s0,.07,0,.11,0,.16,0,.24,0,0,0,.07a42.18,42.18,0,0,1-84.36,1.21,1.92,1.92,0,0,0,0-.24Z" style="fill: rgb(38, 50, 56); transform-origin: 199.892px 369.403px;" id="el57knfe93f35" class="animable"></path><g id="eltahb1se3pf"><circle cx="199.92" cy="369.5" r="26.78" style="fill: rgb(245, 245, 245); transform-origin: 199.92px 369.5px; transform: rotate(-80.93deg);" class="animable"></circle></g><g id="elof4tivms85a"><circle cx="199.92" cy="369.5" r="25.27" style="fill: rgb(224, 224, 224); transform-origin: 199.92px 369.5px; transform: rotate(-45deg);" class="animable"></circle></g><g id="el12i6kv7kcq8c"><circle cx="199.92" cy="369.5" r="19.84" style="fill: rgb(38, 50, 56); transform-origin: 199.92px 369.5px; transform: rotate(-46.32deg);" class="animable"></circle></g><path d="M188,388.21c.8-1.28,24.41-33.51,25.52-34.84l-1-.8-.86-1.29c-.2.14-26,35-26.26,35.89l1.35.34Z" style="fill: rgb(224, 224, 224); transform-origin: 199.46px 369.745px;" id="elve10a9y4gps" class="animable"></path><path d="M179,378.62c1.39-.58,39.34-13.1,41-13.53l-.32-1.21.06-1.55h0c-.28,0-41.51,13.33-42.24,13.95l1.81,2.13-.9-1.06Z" style="fill: rgb(224, 224, 224); transform-origin: 198.75px 370.475px;" id="elp6bdvej9kqj" class="animable"></path><path d="M220.86,378.62l.46-1.16,1-1.22c-.2-.15-41.16-13.68-42.31-13.68h0l.1,1.39-.29,1.36C181.24,365.68,219.26,378,220.86,378.62Z" style="fill: rgb(224, 224, 224); transform-origin: 201.07px 370.59px;" id="elvmhthanjshp" class="animable"></path><path d="M211.83,390.35l.75-1.18,1-.93c-1-1.16-24.11-33.73-25-35.2l-1.06.66-1.49.4C186.11,354.34,211,389.84,211.83,390.35Z" style="fill: rgb(224, 224, 224); transform-origin: 199.805px 371.695px;" id="eluu4x0wcfc7b" class="animable"></path><path d="M197.88,391.77l2.58-1.06-1.29.53,1.38-.16c-.11-1.5-.26-41.46-.16-43.19l-1.24-.07-1.46-.53C197.61,347.53,197.51,390.89,197.88,391.77Z" style="fill: rgb(224, 224, 224); transform-origin: 199.082px 369.53px;" id="elujubujc71yn" class="animable"></path><g id="el7g2ywn5a7a7"><circle cx="199.08" cy="369.48" r="8.08" style="fill: rgb(69, 90, 100); transform-origin: 199.08px 369.48px; transform: rotate(-67.62deg);" class="animable"></circle></g><path d="M190.3,369.48a8.78,8.78,0,1,1,8.78,8.78A8.79,8.79,0,0,1,190.3,369.48Zm1.4,0a7.39,7.39,0,1,0,7.38-7.38A7.39,7.39,0,0,0,191.7,369.48Z" style="fill: rgb(224, 224, 224); transform-origin: 199.08px 369.48px;" id="eljuj34hd1kvf" class="animable"></path><path d="M232.74,369.5h3.73a37.35,37.35,0,0,0-37.3-37.3v3.73A33.61,33.61,0,0,1,232.74,369.5Z" style="fill: rgb(243, 16, 16); transform-origin: 217.82px 350.85px;" id="elsfmdchqav0j" class="animable"></path><path d="M162.33,375.36l3.67-.58a34.39,34.39,0,0,1-.41-5.28h-3.72A36.86,36.86,0,0,0,162.33,375.36Z" style="fill: rgb(243, 16, 16); transform-origin: 163.935px 372.43px;" id="eltusr6fxqwxk" class="animable"></path><path d="M176.29,399l2.29-2.94a33.63,33.63,0,0,0,7.23,4.29l-1.49,3.41A37.45,37.45,0,0,1,176.29,399Zm-11.36-14.63,3.42-1.49a33.39,33.39,0,0,0,4.29,7.23l-2.95,2.29A37.86,37.86,0,0,1,164.93,384.34Z" style="fill: rgb(243, 16, 16); transform-origin: 175.37px 393.32px;" id="el8a0v9bl0rdx" class="animable"></path><path d="M199.17,406.8v-3.72a34.39,34.39,0,0,1-5.28-.41l-.58,3.68A38.16,38.16,0,0,0,199.17,406.8Z" style="fill: rgb(243, 16, 16); transform-origin: 196.24px 404.735px;" id="elk1svjxk8q2q" class="animable"></path><path d="M249,369.73c0-.15,57.12-.26,127.56-.26s127.58.11,127.58.26-57.11.26-127.58.26S249,369.87,249,369.73Z" style="fill: rgb(38, 50, 56); transform-origin: 376.57px 369.73px;" id="elggpjxjobqm" class="animable"></path><path d="M470.63,336.65a5.11,5.11,0,0,1-.51-1.16c-.29-.76-.67-1.88-1.1-3.27-.88-2.78-2-6.65-3.28-10.9s-2.53-8.07-3.6-10.76c-.26-.68-.55-1.27-.77-1.8s-.46-.93-.66-1.32a6.35,6.35,0,0,1-.64-1.08,5.16,5.16,0,0,1,.82,1c.2.36.47.78.75,1.3s.55,1.11.84,1.78a109.48,109.48,0,0,1,3.76,10.76c1.28,4.26,2.35,8.14,3.13,10.94.37,1.32.69,2.43.94,3.32A6.19,6.19,0,0,1,470.63,336.65Z" style="fill: rgb(38, 50, 56); transform-origin: 465.35px 321.505px;" id="elrx40g458kjr" class="animable"></path><path d="M501.14,307.35a3.75,3.75,0,0,1,.74-.29l2.17-.74c.94-.32,2.1-.69,3.46-1.08s2.89-.88,4.61-1.32c3.43-.94,7.56-1.9,12.17-2.8s9.74-1.67,15.14-2.24,10.57-.82,15.27-.92,8.94,0,12.49.25c1.78.07,3.38.23,4.79.34s2.61.23,3.6.35l2.27.28a4.65,4.65,0,0,1,.79.13,4,4,0,0,1-.8,0l-2.28-.17c-1-.09-2.2-.2-3.61-.27s-3-.21-4.78-.26c-3.54-.17-7.77-.22-12.46-.14s-9.84.41-15.23,1-10.48,1.35-15.1,2.19-8.73,1.8-12.16,2.69c-1.73.41-3.27.87-4.63,1.24s-2.53.71-3.48,1l-2.19.64A4.41,4.41,0,0,1,501.14,307.35Z" style="fill: rgb(38, 50, 56); transform-origin: 539.89px 302.636px;" id="eli3xw7970bjh" class="animable"></path><path d="M329.45,272.6l20.9.54L286,309.2l-43.86.47C241.54,309.2,301.62,280.9,329.45,272.6Z" style="fill: rgb(69, 90, 100); transform-origin: 296.243px 291.135px;" id="elsq0yknwzyog" class="animable"></path><path d="M494.07,296.31l-34,10.05L281.42,309.2s56.23-36.36,74.89-37.59c36-2.36,112.5,9.58,137.68,16.42A4.3,4.3,0,0,1,494.07,296.31Z" style="fill: rgb(38, 50, 56); transform-origin: 389.294px 290.253px;" id="el9frlnpuwv6" class="animable"></path><path d="M436.39,302.61,440.14,282s-52.07-7.39-81.95-7.65c-10.15-.09-36.73,16.35-49.69,26.07l-8.18,6Z" style="fill: rgb(69, 90, 100); transform-origin: 370.23px 290.385px;" id="elcg8w6mk7we" class="animable"></path><path d="M635.51,326.36s-12.89-2.15-16.91-4.63c-2.85-1.77-17.32-12.31-17.32-12.31l24.75.39s3.49,1,6.79,7.82A31.36,31.36,0,0,1,635.51,326.36Z" style="fill: rgb(243, 16, 16); transform-origin: 618.395px 317.89px;" id="el3n4h9q7eizu" class="animable"></path><g id="el2try1aomoi7"><rect x="426.48" y="352.04" width="2.17" height="14.31" rx="1.03" style="fill: rgb(38, 50, 56); transform-origin: 427.565px 359.195px; transform: rotate(180deg);" class="animable"></rect></g><g id="elmu68xje4k6n"><rect x="421.83" y="352.04" width="2.17" height="14.31" rx="1.03" style="fill: rgb(38, 50, 56); transform-origin: 422.915px 359.195px; transform: rotate(180deg);" class="animable"></rect></g><g id="elko1f0fjm9p"><rect x="417.18" y="352.04" width="2.17" height="14.31" rx="1.03" style="fill: rgb(38, 50, 56); transform-origin: 418.265px 359.195px; transform: rotate(180deg);" class="animable"></rect></g><g id="elupj5dct3f5"><rect x="412.53" y="352.04" width="2.17" height="14.31" rx="1.03" style="fill: rgb(38, 50, 56); transform-origin: 413.615px 359.195px; transform: rotate(180deg);" class="animable"></rect></g><g id="elngstuspvi1"><rect x="407.88" y="352.04" width="2.17" height="14.31" rx="1.03" style="fill: rgb(38, 50, 56); transform-origin: 408.965px 359.195px; transform: rotate(180deg);" class="animable"></rect></g><g id="el7pfpe7fk6cu"><rect x="403.23" y="352.04" width="2.17" height="14.31" rx="1.03" style="fill: rgb(38, 50, 56); transform-origin: 404.315px 359.195px; transform: rotate(180deg);" class="animable"></rect></g><path d="M476.36,276.26c-.07,0,.68-5.57-2-5.66s-20.86,1.4-20.86,1.4Z" style="fill: rgb(224, 224, 224); transform-origin: 464.953px 273.428px;" id="el4nmaco3bqe" class="animable"></path><g id="elwq9hi10bil"><g style="opacity: 0.3; transform-origin: 263.17px 317.63px;" class="animable"><path d="M259.86,317.63a3.31,3.31,0,1,0,3.31-3.31A3.31,3.31,0,0,0,259.86,317.63Z" id="el2srt9te1bh6" class="animable" style="transform-origin: 263.17px 317.63px;"></path></g></g><g id="elxqwsop4ukg"><g style="opacity: 0.3; transform-origin: 251.31px 317.63px;" class="animable"><path d="M248,317.63a3.31,3.31,0,1,0,3.31-3.31A3.31,3.31,0,0,0,248,317.63Z" id="el60p5x84aryj" class="animable" style="transform-origin: 251.31px 317.63px;"></path></g></g><path d="M476.68,335.9a47.73,47.73,0,0,1-5.21-.14,90.56,90.56,0,0,1,10.42,0A47.88,47.88,0,0,1,476.68,335.9Z" style="fill: rgb(38, 50, 56); transform-origin: 476.68px 335.764px;" id="el0wxmw6jsasn" class="animable"></path><path d="M589.46,328.8A5.34,5.34,0,0,1,589,328a21.37,21.37,0,0,0-1.4-2.1,22.45,22.45,0,0,0-7.05-5.95,40.57,40.57,0,0,0-13.09-4.16,108.94,108.94,0,0,0-16.85-1.55,63.6,63.6,0,0,0-16.75,2,47,47,0,0,0-12.63,5.44,38.9,38.9,0,0,0-7.25,5.82c-.76.79-1.34,1.42-1.71,1.87a5.93,5.93,0,0,1-.6.65,5.08,5.08,0,0,1,.52-.72c.34-.47.9-1.12,1.64-1.94a37,37,0,0,1,7.2-6,46.07,46.07,0,0,1,12.71-5.59,62.36,62.36,0,0,1,16.87-2.05,105.85,105.85,0,0,1,16.93,1.6,40.1,40.1,0,0,1,13.19,4.31,22.06,22.06,0,0,1,7,6.15A13,13,0,0,1,589.46,328.8Z" style="fill: rgb(38, 50, 56); transform-origin: 550.565px 321.866px;" id="el9g9pvaol83b" class="animable"></path><path d="M640.61,361.68c-13.1,10-28.47,16-44.47,20l-.55,1.51S591.1,398,578,407c0,0,42.42.87,52.33-2.53l11.73-42.34Z" style="fill: rgb(38, 50, 56); transform-origin: 610.03px 384.39px;" id="el7cmcaj12fhv" class="animable"></path><g id="eloszcupci98"><g style="opacity: 0.3; transform-origin: 608.01px 335.45px;" class="animable"><path d="M590.18,344.25c12.34-3.47,31.77-9.12,45.33-17.6-17.78,2.06-40.56,6.31-55,7.19A69.7,69.7,0,0,1,590.18,344.25Z" id="el0v2pxbkp41x" class="animable" style="transform-origin: 608.01px 335.45px;"></path></g></g><path d="M297.78,308.78c0,.05-.72.63-2,1.82a54,54,0,0,0-4.85,5.46,105.83,105.83,0,0,0-6.22,8.89c-1.09,1.72-2.18,3.57-3.27,5.5a57.67,57.67,0,0,0-3,6.15,12.12,12.12,0,0,0-.61,6.64c.34,2.18.95,4.24,1.43,6.23.92,4,1.55,7.63,2.17,10.67s1,5.44,1.38,7.2c.14.81.26,1.46.35,2a3.25,3.25,0,0,1,.08.69,3.12,3.12,0,0,1-.19-.67l-.44-1.94c-.38-1.75-.9-4.19-1.54-7.17s-1.34-6.65-2.27-10.62c-.5-2-1.12-4-1.47-6.27a12.66,12.66,0,0,1,.62-6.91,56.85,56.85,0,0,1,3.09-6.2c1.09-1.95,2.2-3.8,3.31-5.52a96.2,96.2,0,0,1,6.33-8.86,46.91,46.91,0,0,1,5-5.37,17.77,17.77,0,0,1,1.54-1.28A5.49,5.49,0,0,1,297.78,308.78Z" style="fill: rgb(38, 50, 56); transform-origin: 287.443px 339.405px;" id="el91565x2d6r4" class="animable"></path><path d="M155.83,324s-4.49,8.09-9.85,13.1-30.49,9.25-30.49,9.25,5.24-5.76,18.55-13.43A95.91,95.91,0,0,1,155.83,324Z" style="fill: rgb(224, 224, 224); transform-origin: 135.66px 335.175px;" id="eltkewfcmh9mc" class="animable"></path><path d="M231,402.3H392.46s39.26-18.79,47.91-21.74,24.49-1.29,24.49-1.29l42.53-.37c3,13,9.58,21.34,20.26,28.91L223.48,408Z" style="fill: rgb(243, 16, 16); transform-origin: 375.565px 393.402px;" id="elcoyxq16tyx" class="animable"></path><path d="M240.1,334.29s-.08,0-.21-.15l-.58-.47c-.52-.41-1.22-1.08-2.23-1.82a60.23,60.23,0,0,0-8.84-5.75,65.74,65.74,0,0,0-6.62-3,64.64,64.64,0,0,0-8-2.46,57.51,57.51,0,0,0-37.43,3.57,59.21,59.21,0,0,0-13.3,8.17,59.88,59.88,0,0,0-7.59,7.32c-.85.92-1.41,1.71-1.85,2.21l-.48.57q-.17.19-.18.18l.14-.21.44-.61c.41-.52,1-1.33,1.77-2.27a55.92,55.92,0,0,1,7.52-7.47,63.23,63.23,0,0,1,5.92-4.32,64.24,64.24,0,0,1,7.41-4,57.32,57.32,0,0,1,37.74-3.6,58.53,58.53,0,0,1,14.66,5.65,55.43,55.43,0,0,1,8.8,5.91c1,.77,1.67,1.47,2.17,1.9l.55.51C240.05,334.22,240.11,334.28,240.1,334.29Z" style="fill: rgb(38, 50, 56); transform-origin: 196.446px 330.586px;" id="eloblrq3sjq0r" class="animable"></path><polygon points="370.23 271.33 335.57 270.81 329.45 272.6 351.86 273.79 370.23 271.33" style="fill: rgb(38, 50, 56); transform-origin: 349.84px 272.3px;" id="elveqnv9i747" class="animable"></polygon><path d="M440.26,306.37c-.14,0,.66-8.06,1.78-18s2.16-17.91,2.3-17.89-.65,8.05-1.78,18S440.41,306.38,440.26,306.37Z" style="fill: rgb(69, 90, 100); transform-origin: 442.3px 288.425px;" id="el43ndb4v2xu4" class="animable"></path><path d="M247,394.24a3,3,0,0,1,.19-.56c.16-.41.37-.92.62-1.56.14-.34.29-.71.46-1.11s.3-.87.47-1.36c.33-1,.76-2.07,1.07-3.33.17-.63.35-1.28.54-2s.31-1.41.48-2.15c.36-1.49.56-3.1.82-4.79a59.73,59.73,0,0,0-1.35-22.12c-.46-1.65-.86-3.23-1.39-4.65-.26-.72-.47-1.43-.74-2.08s-.53-1.28-.77-1.88c-.47-1.22-1-2.25-1.47-3.18-.22-.46-.42-.9-.63-1.29l-.59-1.05-.81-1.47a2.83,2.83,0,0,1-.25-.53,2.12,2.12,0,0,1,.34.48c.24.37.53.84.89,1.42.2.31.41.66.64,1s.43.82.67,1.28a34.8,34.8,0,0,1,1.54,3.16l.82,1.88c.28.66.5,1.36.77,2.08.55,1.44,1,3,1.45,4.68a58,58,0,0,1,1.35,22.3c-.27,1.7-.49,3.33-.87,4.82-.18.75-.31,1.48-.51,2.16s-.39,1.34-.58,2c-.33,1.27-.79,2.36-1.14,3.33-.19.49-.35.94-.52,1.35l-.5,1.1-.72,1.52A2.12,2.12,0,0,1,247,394.24Z" style="fill: rgb(38, 50, 56); transform-origin: 248.142px 366.685px;" id="el8ai2x8pjniy" class="animable"></path><path d="M306,362.3l3.85,7.43h-8.07l-3.26-6.41h-1.91l-1.15,6.41h-7.77l4.61-25.5h10.34c6.09,0,9.58,3.1,9.58,8.38A10,10,0,0,1,306,362.3Zm-4.55-11.44h-2.6l-1.08,6h3.19a3.09,3.09,0,0,0,3.39-3.39C304.3,351.63,303.18,350.86,301.4,350.86Z" style="fill: rgb(38, 50, 56); transform-origin: 299.96px 356.98px;" id="elgkji1nntl8p" class="animable"></path><path d="M329,365.29h-8.79l-2.3,4.44h-8.2l14.68-25.5H332l5.47,25.5h-7.74Zm-1.08-6.2-1.12-6.52-3.4,6.52Z" style="fill: rgb(38, 50, 56); transform-origin: 323.59px 356.98px;" id="elrqnwheq4qfq" class="animable"></path><path d="M339.66,358.91c0-9,6-15.26,14.56-15.26,4.41,0,8,1.82,9.71,5.1l-5.6,4.84a5,5,0,0,0-4.61-3c-3.65,0-6.22,3.2-6.22,7.75,0,3,1.88,5,4.74,5,1.81,0,3.56-.83,5.14-3l4.57,4.85c-2.8,3.79-6.22,5.06-10.47,5.06C344.34,370.31,339.66,365.69,339.66,358.91Z" style="fill: rgb(38, 50, 56); transform-origin: 351.795px 356.95px;" id="elut3jhg0f4tg" class="animable"></path><path d="M373.94,350.72l-.53,3h9.75L382,359.89h-9.78l-.6,3.36h11.56L382,369.73H362.87l4.61-25.5h18.74L385,350.72Z" style="fill: rgb(38, 50, 56); transform-origin: 374.545px 356.98px;" id="elv7px4jojuzs" class="animable"></path><path d="M359.69,389.59c0-9.61,5.27-16.68,12.48-16.68,5.4,0,8.92,3.64,8.92,10,0,9.62-5.27,16.68-12.48,16.68C363.21,399.57,359.69,395.93,359.69,389.59Zm13.63-6.48c0-2.51-.82-3.32-1.94-3.32-2.7,0-3.92,6.2-3.92,9.58,0,2.52.82,3.32,1.94,3.32C372.1,392.69,373.32,386.5,373.32,383.11Z" style="fill: rgb(243, 16, 16); transform-origin: 370.39px 386.25px;" id="elm9s2awuf3wa" class="animable"></path><path d="M401,378.77l-5.27,5a6.34,6.34,0,0,1,4.38,6.23c0,5.5-5,9.54-11.69,9.54a14.81,14.81,0,0,1-8.89-2.66l3.52-6a10.5,10.5,0,0,0,5.9,1.86c2.14,0,3.32-.77,3.32-2.19,0-1-.72-1.53-2.3-1.53h-3.2l1-5.28,4-3.82h-8.17l1.18-6.49h17.19Z" style="fill: rgb(243, 16, 16); transform-origin: 390.75px 386.488px;" id="elm3lrj56l198" class="animable"></path><g id="eld3s8w7ogb8"><g style="opacity: 0.3; transform-origin: 281.731px 354.77px;" class="animable"><path d="M247.62,346.74s68.61,9.49,68.22,14.91l-63.49,1.15S249.16,350,247.62,346.74Z" id="el4ltlk97txz" class="animable" style="transform-origin: 281.731px 354.77px;"></path></g></g><rect x="612.14" y="264.72" width="28.9" height="6.99" style="fill: rgb(243, 16, 16); transform-origin: 626.59px 268.215px;" id="eludzrg8aaph" class="animable"></rect><rect x="644.52" y="264.72" width="5.55" height="6.99" style="fill: rgb(243, 16, 16); transform-origin: 647.295px 268.215px;" id="elqa4tn4vykuh" class="animable"></rect><path d="M658.61,273.76a.79.79,0,0,1-.25,0l-.73,0-2.82.05-10.37.08-34.19.08H596.31l.14,0-14.34,9.37.08-.1c-1.8,5-3.27,9-4.3,11.88l-1.2,3.24c-.14.34-.24.62-.33.84a1.47,1.47,0,0,1-.13.28,1.59,1.59,0,0,1,.07-.3l.28-.86c.26-.79.63-1.88,1.1-3.27,1-2.87,2.41-6.95,4.14-11.94l0-.07,0,0,14.28-9.46.07,0h14l34.19.07,10.37.09,2.82,0,.73,0A.79.79,0,0,1,658.61,273.76Z" style="fill: rgb(69, 90, 100); transform-origin: 617.42px 286.53px;" id="elmtk5nbta7bq" class="animable"></path><path d="M464.94,332.45s-.19,0-.58.06l-1.72.12L456,333l-24.36,1.39-80.36,4.29c-31.4,1.6-59.82,3-80.4,3.87l-24.37,1-6.63.23-1.72.05h-.59l.58-.05,1.73-.09,6.62-.33,24.36-1.17,80.39-4,80.37-4.14L456,332.84l6.62-.31,1.73-.07Z" style="fill: rgb(38, 50, 56); transform-origin: 351.255px 338.14px;" id="eli0i6nocio8c" class="animable"></path><g id="elyoi7cbswcx"><g style="opacity: 0.3; transform-origin: 549.71px 317.163px;" class="animable"><path d="M513.91,326.65s9.92-17.88,32.09-18.88,35.89,6.16,39.51,15.63c0,0-9.68-10.61-37.15-9.4S513.91,326.65,513.91,326.65Z" id="elizpml8c1g4h" class="animable" style="transform-origin: 549.71px 317.163px;"></path></g></g><g id="elizhcuvtop0c"><g style="opacity: 0.3; transform-origin: 372.33px 391.694px;" class="animable"><path d="M228.66,404l168,1,50.25-21.88h18L487,402.92h29l-11.8-24.05-52.53-.47a34.28,34.28,0,0,0-14.93,3L392.46,401.9H231Z" id="elnqaqvu1gmnq" class="animable" style="transform-origin: 372.33px 391.694px;"></path></g></g><path d="M513.91,333.66c-.31-.2-50.66,1.95-50.66,1.95s-3.18,0-3.18,7.6v33.9s15.31,20.22,16.61,20.22h33.1a54.36,54.36,0,0,1-8.52-31.84C502.25,347,513.91,333.66,513.91,333.66Z" style="fill: rgb(38, 50, 56); transform-origin: 486.99px 365.488px;" id="el6pebuwvihyn" class="animable"></path><path d="M524.07,403.86c0,.15-26.12.26-58.33.26s-58.34-.11-58.34-.26,26.12-.26,58.34-.26S524.07,403.72,524.07,403.86Z" style="fill: rgb(38, 50, 56); transform-origin: 465.735px 403.86px;" id="elnvf22m0p4cq" class="animable"></path><g id="elcs3i3y1u8qk"><g style="opacity: 0.3; transform-origin: 132.26px 361px;" class="animable"><polygon points="114.87 363.36 149.65 352.27 114.87 369.73 114.87 363.36" id="els4p5c428rt7" class="animable" style="transform-origin: 132.26px 361px;"></polygon></g></g><path d="M633.71,326.76a2.31,2.31,0,0,1-.53.16l-1.56.35c-1.35.3-3.31.7-5.74,1.17-4.86.92-11.61,2-19.1,3s-14.31,1.52-19.25,1.82c-2.47.15-4.47.25-5.85.3l-1.6,0a1.8,1.8,0,0,1-.55,0,2.47,2.47,0,0,1,.55-.08l1.58-.14,5.84-.46c4.93-.4,11.73-1,19.21-2s14.23-2,19.1-2.84l5.77-1,1.58-.26A2.08,2.08,0,0,1,633.71,326.76Z" style="fill: rgb(38, 50, 56); transform-origin: 606.62px 330.166px;" id="el5mi0y3ffjtd" class="animable"></path><path d="M636,359.77a10.82,10.82,0,0,1-1.35,1.05c-.88.65-2.2,1.54-3.85,2.61A107.32,107.32,0,0,1,602.94,376c-1.88.54-3.42.93-4.5,1.16a9.82,9.82,0,0,1-1.67.32,10.53,10.53,0,0,1,1.62-.51c1.06-.3,2.58-.74,4.45-1.33a123.29,123.29,0,0,0,27.79-12.57c1.67-1,3-1.86,3.93-2.46A9.94,9.94,0,0,1,636,359.77Z" style="fill: rgb(38, 50, 56); transform-origin: 616.385px 368.625px;" id="elkmajpxjo3db" class="animable"></path><path d="M412.86,291.14c0,.14-13.88.26-31,.26s-31-.12-31-.26,13.89-.26,31-.26S412.86,291,412.86,291.14Z" style="fill: rgb(38, 50, 56); transform-origin: 381.86px 291.14px;" id="elfppp340b1qo" class="animable"></path><path d="M427.74,294.14c0,.14-13.06.26-29.18.26s-29.18-.12-29.18-.26,13.06-.26,29.18-.26S427.74,294,427.74,294.14Z" style="fill: rgb(38, 50, 56); transform-origin: 398.56px 294.14px;" id="eldwscc8m9ca" class="animable"></path><path d="M114.7,379.47a7.56,7.56,0,0,0-2.24,1c-1.44.77-3.57,2-6.3,3.73a80.61,80.61,0,0,0-9.67,7.17,26.12,26.12,0,0,0-5.11,5.79,6.12,6.12,0,0,0-1,4,4.9,4.9,0,0,0,2.85,3.3h0l35.49,1.77,22,1.11,5.91.29,3,.16c1,0,2,0,3.06,0l12.64,0-.07.25a45.83,45.83,0,0,1-15.62-16.78,45,45,0,0,1-5.41-24.18,46.88,46.88,0,0,1,.76-6.52c.22-1.08.53-2.15.8-3.23.15-.54.26-1.09.44-1.62l.57-1.58.58-1.59.29-.79L158,351c.49-1,1-2,1.48-3.08a49,49,0,0,1,3.75-5.8,46,46,0,0,1,23.1-16.33,47.76,47.76,0,0,1,14.83-2c1.27.09,2.55.08,3.81.24l3.81.58c1.26.28,2.5.63,3.76.94l.94.25.91.34,1.84.67a46,46,0,0,1,23.7,20.66,45.56,45.56,0,0,1,5.16,15.71,21,21,0,0,1,.28,2.09l.1,2.11.11,2.11-.07,2.13a44.2,44.2,0,0,1-1.18,8.45,46,46,0,0,1-19.81,27.95l-.12-.39,142.91-.4,78.17-.24L486,407c3.42,0,6.83,0,10.27.05,3.41.29,6.84.31,10.29.39,6.88.12,13.8.1,20.75,0l-.14.47a46.19,46.19,0,0,1-19.92-29.62,47,47,0,0,1,.22-18.45,45.6,45.6,0,0,1,7.57-17,46.27,46.27,0,0,1,13.8-12.66,45.76,45.76,0,0,1,17.83-6.11,46.42,46.42,0,0,1,18.92,1.61A45,45,0,0,1,582.23,335a46.75,46.75,0,0,1,12.24,16.83l.9,2.46a19.46,19.46,0,0,1,.82,2.48l.65,2.52c.1.43.24.84.3,1.27l.2,1.29.39,2.58c.14.86.12,1.73.18,2.6l.13,2.6-.08,2.59a45.93,45.93,0,0,1-19.43,34.86l-.15-.47c8.73-.16,17.41-.35,26-.63,4.31-.15,8.62-.31,12.9-.54q3.23-.17,6.42-.39c2.11-.18,4.3-.31,6.32-.68l-.17.18q5.93-21.4,11.73-42.34l.15.3L635.72,360l-.16-.07v-.15c0-1.23.21-2.31.32-3.46l.33-3.4q.31-3.4.45-6.8a95.33,95.33,0,0,0-.33-13.53,48.73,48.73,0,0,0-3-13,21.53,21.53,0,0,0-7.93-10.29l.13,0c-5-.13-9.95-.46-14.88-.95a106.44,106.44,0,0,1-14.59-2.4c-9.36-3-18.72-5.46-28-7.88q-27.93-7.19-54.95-13.24c-18-4-35.65-7.77-52.95-10.91-4.33-.81-8.64-1.49-12.92-2.23s-8.55-1.31-12.81-1.86c-8.49-1.15-16.89-2.18-25.18-3s-16.5-1.37-24.59-1.36a188.42,188.42,0,0,0-23.82,1.77c-3.88.51-7.74,1.06-11.55,1.63-1.91.3-3.82.55-5.69.9s-3.74.75-5.58,1.22a209.7,209.7,0,0,0-21.28,6.8c-13.71,5.13-26.64,10.8-39,16.4-6.16,2.8-12.15,5.61-18,8.38l-8.69,4.1-4.28,2-2.14,1-1.08.45-.55.2a2.46,2.46,0,0,1-.29.09.68.68,0,0,1-.39,0h.05a127.88,127.88,0,0,0-14.1-.12c-4.61.18-9.12.52-13.53.95-8.82.89-17.25,2-25.2,3.59a224.83,224.83,0,0,0-42,12.83,143,143,0,0,0-16.48,8.17,74.18,74.18,0,0,0-12.9,9.31,38.86,38.86,0,0,0-4.71,5.18L113,351l-.44.69c-.29.46-.6.9-.87,1.36a24.71,24.71,0,0,0-1.35,2.8,6.81,6.81,0,0,0-.7,2.81,4.06,4.06,0,0,0,1,2.51,5.47,5.47,0,0,0,2.1,1.49,3.46,3.46,0,0,0,2.35.24l.08,0V363c-.26,10.8-.38,16.16-.39,16.52,0-.36.1-5.72.28-16.52l.07,0a3.54,3.54,0,0,1-2.43-.22,5.44,5.44,0,0,1-2.15-1.52,4.16,4.16,0,0,1-1-2.59,6.78,6.78,0,0,1,.71-2.86,21.33,21.33,0,0,1,1.35-2.82c.26-.46.57-.9.87-1.37l.44-.69.51-.67a39.84,39.84,0,0,1,4.72-5.21A74.24,74.24,0,0,1,131,335.69a141.71,141.71,0,0,1,16.5-8.21c6-2.54,12.56-4.94,19.58-7.13a226.63,226.63,0,0,1,22.46-5.77c8-1.58,16.39-2.72,25.22-3.62,4.41-.43,8.93-.78,13.55-1a126.21,126.21,0,0,1,14.14.12v.1c1.34-.52,2.83-1.16,4.23-1.8l4.27-2,8.69-4.11q8.78-4.15,18-8.39c12.31-5.61,25.24-11.29,39-16.43a208.14,208.14,0,0,1,21.32-6.83q2.76-.71,5.6-1.23c1.89-.35,3.79-.61,5.7-.9,3.82-.57,7.67-1.13,11.56-1.65a188.94,188.94,0,0,1,23.87-1.77c8.11,0,16.33.54,24.63,1.34s16.7,1.85,25.2,3c4.25.54,8.52,1.23,12.82,1.86s8.6,1.41,12.93,2.22c17.32,3.14,35,6.86,53,10.9s36.34,8.43,55,13.22c9.3,2.41,18.72,4.9,28,7.88a106.42,106.42,0,0,0,14.52,2.37c4.91.5,9.87.83,14.84.95h.07l.06,0a22,22,0,0,1,8.12,10.52,49.28,49.28,0,0,1,3,13.15,96.36,96.36,0,0,1,.34,13.6c-.09,2.27-.25,4.55-.45,6.82l-.34,3.41c-.1,1.13-.28,2.31-.31,3.37l-.16-.21L642,362l.21.09-.06.22q-5.8,20.93-11.73,42.33l0,.16-.13,0a62.2,62.2,0,0,1-6.43.7q-3.21.24-6.43.4-6.43.33-12.92.53c-8.63.29-17.32.48-26.05.64h-.84l.69-.48a45.45,45.45,0,0,0,19.2-34.47l.08-2.56-.13-2.58c-.06-.85,0-1.71-.17-2.56l-.39-2.55-.2-1.28c-.06-.42-.2-.83-.3-1.25l-.64-2.5a19.52,19.52,0,0,0-.81-2.45L594,352a46.32,46.32,0,0,0-12.1-16.64,44.61,44.61,0,0,0-16.5-9.17,45.89,45.89,0,0,0-18.7-1.59,45,45,0,0,0-17.64,6,45.72,45.72,0,0,0-13.64,12.52,45.08,45.08,0,0,0-7.48,16.78,46.29,46.29,0,0,0-.22,18.24,45.66,45.66,0,0,0,19.69,29.29l.7.46h-.83c-7,.1-13.88.12-20.77,0-3.44-.08-6.91-.11-10.29-.4-3.42-.05-6.85,0-10.26-.05l-40.49.06-78.17.23-142.91.34h-.74l.62-.4A45.54,45.54,0,0,0,243.9,380a43.49,43.49,0,0,0,1.18-8.38l.07-2.11-.11-2.09-.1-2.09a18,18,0,0,0-.27-2.07,45.23,45.23,0,0,0-5.11-15.58,45.7,45.7,0,0,0-23.49-20.5l-1.82-.66-.91-.34c-.3-.09-.62-.16-.93-.24-1.24-.31-2.48-.67-3.72-.94l-3.78-.58c-1.25-.16-2.52-.15-3.78-.24a47.29,47.29,0,0,0-14.71,1.93,45.77,45.77,0,0,0-22.94,16.19,49.64,49.64,0,0,0-3.73,5.76l-1.47,3-.36.76-.29.79-.58,1.58-.57,1.57c-.18.52-.29,1.07-.44,1.6-.26,1.08-.57,2.14-.79,3.21a47.7,47.7,0,0,0-.77,6.48,44.89,44.89,0,0,0,5.36,24,45.52,45.52,0,0,0,15.51,16.69l.39.25H162.62c-1,0-2.05,0-3.06,0l-3-.15-5.91-.31-22-1.13-35.49-1.84h0a7.31,7.31,0,0,1-1.89-1.4,4,4,0,0,1-1-2,6.34,6.34,0,0,1,1.05-4.15,26.2,26.2,0,0,1,5.15-5.81,79.9,79.9,0,0,1,9.71-7.15C111.59,380.68,114.66,379.27,114.7,379.47Z" style="fill: rgb(38, 50, 56); transform-origin: 366.225px 336.57px;" id="el0zefr7k0myk9" class="animable"></path></g><defs>     <filter id="active" height="200%">         <feMorphology in="SourceAlpha" result="DILATED" operator="dilate" radius="2"></feMorphology>                <feFlood flood-color="#32DFEC" flood-opacity="1" result="PINK"></feFlood>        <feComposite in="PINK" in2="DILATED" operator="in" result="OUTLINE"></feComposite>        <feMerge>            <feMergeNode in="OUTLINE"></feMergeNode>            <feMergeNode in="SourceGraphic"></feMergeNode>        </feMerge>    </filter>    <filter id="hover" height="200%">        <feMorphology in="SourceAlpha" result="DILATED" operator="dilate" radius="2"></feMorphology>                <feFlood flood-color="#ff0000" flood-opacity="0.5" result="PINK"></feFlood>        <feComposite in="PINK" in2="DILATED" operator="in" result="OUTLINE"></feComposite>        <feMerge>            <feMergeNode in="OUTLINE"></feMergeNode>            <feMergeNode in="SourceGraphic"></feMergeNode>        </feMerge>            <feColorMatrix type="matrix" values="0   0   0   0   0                0   1   0   0   0                0   0   0   0   0                0   0   0   1   0 "></feColorMatrix>    </filter></defs></svg>